<svg aria-hidden="true" style="position:absolute;width:0;height:0;overflow:hidden" xmlns="http://www.w3.org/2000/svg">
  <defs>
    <symbol id="icon-learning-languages" viewBox="0 0 41 32">
      <path fill="#fff" style="fill:var(--color1, #fff)" d="M6.039 28.176s-2.17-3.817-1.669-4.787 1.781.775 1.781.775-1.113-3.558-.5-5.111 1.668 0 1.72 1.1-.222 2.976-.222 2.976.445-3.881 1.501-2.717c1.057 1.164-1.335 5.046-1.335 5.046s1.614-.902 1.556.259c-.057 1.162-1.947 2.2-1.947 2.2z"/>
      <path fill="#263238" style="fill:var(--color2, #263238)" d="M8.462 26.624H4.709l.375 4.434h3.003l.375-4.434z"/>
      <path fill="#fff" style="fill:var(--color1, #fff)" d="m32.658 4.128-4.246.264a.937.937 0 0 0-.879.95l.021 1.709-1.234.131 1.244.643a.94.94 0 0 0 .954.925l4.122-.075a.935.935 0 0 0 .919-.902l.095-2.671a.935.935 0 0 0-.996-.972z"/>
      <path fill="#263238" style="fill:var(--color2, #263238)" d="M28.997 7.742v-.446c0-.214.152-.357.38-.357s.38.139.38.35c0 .01-.008.016-.021.018l-.073.005c-.013 0-.021 0-.021-.01v-.01a.267.267 0 0 0-.532 0v.454a.265.265 0 0 0 .266.266.267.267 0 0 0 .266-.266l.001-.008.005-.007.007-.004H29.736c.012 0 .021 0 .021.008v.008c0 .213-.152.354-.38.354s-.38-.141-.38-.357zM29.974 7.036c-.001-.018.003-.035.012-.05s.022-.027.038-.035a.088.088 0 0 1 .097.016c.013.012.022.028.026.045s.002.035-.004.051-.018.03-.032.04a.088.088 0 0 1-.049.015c-.011.001-.022-.001-.033-.005s-.02-.01-.029-.017a.083.083 0 0 1-.026-.06zm.031 1.031v-.778l.001-.008.004-.007.007-.005c.003-.001.005-.002.008-.001h.073l.008.001a.03.03 0 0 1 .007.005l.005.007.001.008v.778l-.001.008a.03.03 0 0 1-.005.007l-.007.005-.008.001h-.073l-.008-.001a.03.03 0 0 1-.007-.005l-.004-.007-.001-.008zM30.978 7.527v.54l-.001.008-.004.007-.007.005c-.003.001-.005.002-.008.001h-.073l-.008-.001a.03.03 0 0 1-.007-.005l-.005-.007-.001-.008v-.058c0-.007-.005-.01-.01 0a.333.333 0 0 1-.252.096c-.138 0-.267-.066-.267-.237s.123-.263.333-.263h.192l.003-.002.002-.003v-.063a.17.17 0 0 0-.051-.136.158.158 0 0 0-.064-.037.168.168 0 0 0-.074-.005c-.102 0-.169.042-.187.11 0 .003-.001.005-.003.008l-.006.006c-.002.002-.005.003-.008.003h-.008l-.082-.01c-.013 0-.021-.007-.02-.017.021-.119.141-.2.308-.2.198-.003.306.109.306.269zm-.115.298v-.128l-.002-.003-.003-.002H30.685c-.141 0-.237.06-.237.164s.082.144.178.144c.12.002.237-.061.237-.175zM31.213 7.875a.704.704 0 0 1-.023-.199.733.733 0 0 1 .021-.198.335.335 0 0 1 .632 0 .704.704 0 0 1 .023.199.704.704 0 0 1-.023.199.33.33 0 0 1-.316.225.337.337 0 0 1-.316-.225v-.002zm.524-.033a.751.751 0 0 0 .013-.164.694.694 0 0 0-.013-.164c-.013-.046-.04-.086-.078-.114s-.084-.044-.131-.044a.215.215 0 0 0-.209.158 1.003 1.003 0 0 0 0 .328c.013.046.04.086.078.114s.084.044.131.044a.215.215 0 0 0 .209-.158z"/>
      <path fill="#8c8c8c" style="fill:var(--color3, #8c8c8c)" d="M31.798 4.569h-2.781v1.754h2.781V4.569z"/>
      <path fill="#696969" style="fill:var(--color4, #696969)" d="M31.798 4.569h-1.579v1.754h1.579V4.569z"/>
      <path fill="#fff" style="fill:var(--color1, #fff)" d="M30.974 4.569h-1.133v1.754h1.133V4.569zM14.874 6.23l-1.679-.455.379-2.493a.796.796 0 0 0-.496-.858.776.776 0 0 0-.35-.051l-3.565.295a.786.786 0 0 0-.723.853l.262 3.27a.788.788 0 0 0 .757.728l2.744.108a.787.787 0 0 0 .812-.671l.071-.467 1.788-.259z"/>
      <path fill="#263238" style="fill:var(--color2, #263238)" d="M10.244 5.458h.073l.008.001.007.005.004.007.001.008v1.093l-.001.008-.004.007-.007.005c-.003.001-.005.002-.008.001h-.073l-.008-.001a.03.03 0 0 1-.007-.005l-.005-.007-.001-.008v-.495l-.002-.003-.003-.002h-.519l-.003.002-.002.003v.495l-.001.008a.03.03 0 0 1-.005.007l-.007.005-.008.001H9.6l-.008-.001a.03.03 0 0 1-.007-.005l-.004-.007-.001-.008V5.476l.001-.008.004-.007.007-.005.008-.001h.073l.008.001a.03.03 0 0 1 .007.005l.005.007.001.008v.488l.002.003.003.002h.52l.003-.002.002-.003v-.488c0-.005.003-.01.007-.013s.009-.005.014-.005zM10.611 6.378a.703.703 0 0 1-.022-.199.733.733 0 0 1 .021-.198.334.334 0 0 1 .316-.222.333.333 0 0 1 .316.222.704.704 0 0 1 .023.199.704.704 0 0 1-.023.199.33.33 0 0 1-.316.225.337.337 0 0 1-.316-.225v-.002zm.525-.034a.751.751 0 0 0 .013-.164.694.694 0 0 0-.013-.164.213.213 0 0 0-.208-.159c-.047 0-.093.016-.131.044s-.065.069-.077.115a.694.694 0 0 0-.013.164.694.694 0 0 0 .013.164.213.213 0 0 0 .208.159.222.222 0 0 0 .131-.044.211.211 0 0 0 .077-.115zM11.498 6.569V5.476l.001-.008.005-.007.007-.005.008-.001h.073l.008.001a.03.03 0 0 1 .007.005l.004.007.001.008v1.093l-.001.008-.004.007-.007.005c-.003.001-.005.002-.008.001h-.073l-.008-.001-.007-.005-.005-.007-.001-.008zM12.463 6.033v.54l-.001.008a.03.03 0 0 1-.005.007l-.007.005-.008.001h-.073l-.008-.001a.03.03 0 0 1-.007-.005l-.005-.007-.001-.008v-.058c0-.007-.005-.01-.01 0a.333.333 0 0 1-.252.096c-.138 0-.267-.067-.267-.236s.123-.263.333-.263h.191l.003-.002.002-.003V6.034c.003-.025-.001-.05-.009-.074s-.023-.045-.041-.062c-.018-.017-.04-.03-.064-.038s-.05-.009-.074-.005c-.102 0-.168.043-.186.111 0 .003-.001.005-.003.008l-.006.006c-.002.002-.005.002-.008.003s-.006 0-.008-.001l-.082-.009c-.012 0-.02-.007-.019-.018.02-.118.141-.199.307-.199.2.003.309.115.309.279zm-.118.294v-.128l-.002-.003-.003-.002H12.167c-.141 0-.237.06-.237.164s.082.144.179.144c.122.002.236-.06.236-.176z"/>
      <path fill="#8c8c8c" style="fill:var(--color3, #8c8c8c)" d="M12.379 3.071H9.598v1.754h2.781V3.071z"/>
      <path fill="#fff" style="fill:var(--color1, #fff)" d="M12.379 3.496H9.598v.905h2.781v-.905zM33.993 10.518h-2.184a1.67 1.67 0 0 0-1.665 1.668v.616l-1.089-.042 1.092.714v.462a1.669 1.669 0 0 0 1.666 1.669h2.184a1.671 1.671 0 0 0 1.665-1.669v-1.75a1.67 1.67 0 0 0-1.03-1.542 1.661 1.661 0 0 0-.638-.126z"/>
      <path fill="#263238" style="fill:var(--color2, #263238)" d="M32.04 13.63h.073l.008.001a.016.016 0 0 1 .007.004l.004.007.001.008v1.093l-.001.008-.004.007-.007.005c-.003.001-.005.002-.008.001h-.073l-.008-.001a.03.03 0 0 1-.007-.005l-.005-.007-.001-.008v-.495l-.002-.003-.003-.002h-.519l-.003.002-.002.003v.495l-.001.008a.03.03 0 0 1-.005.007l-.007.005-.008.001h-.073l-.008-.001a.03.03 0 0 1-.007-.005l-.005-.007-.001-.008V13.65l.001-.008.005-.007.007-.004.008-.001h.073l.008.001.007.004.005.007c.001.003.002.005.001.008v.488l.002.003.003.002h.519l.003-.002.002-.003v-.488l.001-.008a.03.03 0 0 1 .005-.007l.007-.004.008-.001zM32.936 14.557l.004-.007.007-.005.008-.001c.002 0 .006.001.008.003l.047.026c.011.007.016.016.01.027a.314.314 0 0 1-.301.177.3.3 0 0 1-.303-.203.63.63 0 0 1-.031-.224.743.743 0 0 1 .015-.188.305.305 0 0 1 .313-.232.3.3 0 0 1 .323.278.817.817 0 0 1 .01.164l-.001.008a.03.03 0 0 1-.005.007l-.007.004-.008.001h-.521l-.003.002-.002.003v.003c-.001.04.002.08.01.119a.208.208 0 0 0 .22.159.218.218 0 0 0 .207-.123zm-.423-.373a.456.456 0 0 0-.013.111v.003l.002.003.003.002h.419l.003-.001.002-.002.002-.003v-.003a.893.893 0 0 0-.009-.104.202.202 0 0 0-.208-.159.193.193 0 0 0-.201.151zM33.274 14.743V13.65l.001-.008.005-.007.007-.004.008-.001h.073l.008.001.007.004.004.007.001.008v1.093l-.001.008-.004.007-.007.005-.008.001h-.073l-.008-.001a.03.03 0 0 1-.007-.005l-.005-.007-.001-.008zM33.65 14.743V13.65l.001-.008.004-.007.007-.004.008-.001h.073l.008.001.007.004.005.007c.001.003.002.005.001.008v1.093l-.001.008c-.001.002-.002.005-.005.007l-.007.005-.008.001h-.073l-.008-.001a.03.03 0 0 1-.007-.005l-.004-.007-.001-.008zM34.022 14.552a.704.704 0 0 1-.023-.199.733.733 0 0 1 .021-.198.333.333 0 0 1 .509-.161c.057.04.1.096.123.161a.703.703 0 0 1 .022.199.703.703 0 0 1-.022.199.33.33 0 0 1-.316.225.33.33 0 0 1-.316-.225v-.002zm.524-.034a.751.751 0 0 0 .013-.164.694.694 0 0 0-.013-.164.219.219 0 0 0-.209-.159c-.047 0-.093.016-.131.044s-.065.069-.077.115a.694.694 0 0 0-.013.164.694.694 0 0 0 .013.164.213.213 0 0 0 .208.159.215.215 0 0 0 .209-.159z"/>
      <path fill="#fff" style="fill:var(--color1, #fff)" d="M34.304 11.246h-2.781V13h2.781v-1.754z"/>
      <path fill="#263238" style="fill:var(--color2, #263238)" d="M34.319 11.246h-2.781v.17h2.781v-.17zM34.319 11.511h-2.781v.17h2.781v-.17zM34.319 11.777h-2.781v.17h2.781v-.17zM34.319 12.042h-2.781v.17h2.781v-.17zM34.319 12.308h-2.781v.17h2.781v-.17zM34.319 12.574h-2.781v.17h2.781v-.17zM34.319 12.84h-2.781v.17h2.781v-.17z"/>
      <path fill="#263238" style="fill:var(--color2, #263238)" d="M32.871 11.246h-1.348v.934h1.348v-.934z"/>
      <path fill="#fff" style="fill:var(--color1, #fff)" d="m31.576 11.324.012.026.026.004-.019.021.004.029-.024-.013-.023.013.004-.029-.019-.021.026-.004.011-.026zM31.576 11.498l.012.026.026.004-.019.021.004.029-.024-.014-.023.014.004-.029-.019-.021.026-.004.011-.026zM31.576 11.67l.012.026.026.004-.019.021.004.029-.024-.014-.023.014.004-.029-.019-.021.026-.004.011-.026zM31.576 11.842l.012.026.026.005-.019.02.004.029-.024-.013-.023.013.004-.029-.019-.02.026-.005.011-.026zM31.576 12.015l.012.026.026.004-.019.021.004.029-.024-.014-.023.014.004-.029-.019-.021.026-.004.011-.026zM31.699 11.425l.011.026.026.004-.019.021.004.029-.023-.013-.024.013.004-.029-.019-.021.026-.004.012-.026zM31.699 11.598l.011.026.026.004-.019.021.004.029-.023-.014-.024.014.004-.029-.019-.021.026-.004.012-.026zM31.699 11.771l.011.026.026.004-.019.021.004.029-.023-.013-.024.013.004-.029-.019-.021.026-.004.012-.026zM31.699 11.943l.011.026.026.004-.019.021.004.029-.023-.013-.024.013.004-.029-.019-.021.026-.004.012-.026zM31.822 11.324l.012.026.026.004-.02.021.005.029-.024-.013-.024.013.005-.029-.02-.021.027-.004.011-.026zM31.822 11.498l.012.026.026.004-.02.021.005.029-.024-.014-.024.014.005-.029-.02-.021.027-.004.011-.026zM31.822 11.67l.012.026.026.004-.02.021.005.029-.024-.014-.024.014.005-.029-.02-.021.027-.004.011-.026zM31.822 11.842l.012.026.026.005-.02.02.005.029-.024-.013-.024.013.005-.029-.02-.02.027-.005.011-.026zM31.822 12.015l.012.026.026.004-.02.021.005.029-.024-.014-.024.014.005-.029-.02-.021.027-.004.011-.026zM31.946 11.425l.011.026.026.004-.019.021.004.029-.023-.013-.024.013.004-.029-.019-.021.026-.004.012-.026zM31.946 11.598l.011.026.026.004-.019.021.004.029-.023-.014-.024.014.004-.029-.019-.021.026-.004.012-.026zM31.946 11.771l.011.026.026.004-.019.021.004.029-.023-.013-.024.013.004-.029-.019-.021.026-.004.012-.026zM31.946 11.943l.011.026.026.004-.019.021.004.029-.023-.013-.024.013.004-.029-.019-.021.026-.004.012-.026zM32.069 11.324l.011.026.026.004-.019.021.005.029-.024-.013-.024.013.004-.029-.019-.021.026-.004.012-.026zM32.069 11.498l.011.026.026.004-.019.021.005.029-.024-.014-.024.014.004-.029-.019-.021.026-.004.012-.026zM32.069 11.67l.011.026.026.004-.019.021.005.029-.024-.014-.024.014.004-.029-.019-.021.026-.004.012-.026zM32.069 11.842l.011.026.026.005-.019.02.005.029-.024-.013-.024.013.004-.029-.019-.02.026-.005.012-.026zM32.069 12.015l.011.026.026.004-.019.021.005.029-.024-.014-.024.014.004-.029-.019-.021.026-.004.012-.026zM32.191 11.425l.012.026.026.004-.019.021.004.029-.024-.013-.024.013.005-.029-.019-.021.026-.004.011-.026zM32.191 11.598l.012.026.026.004-.019.021.004.029-.024-.014-.024.014.005-.029-.019-.021.026-.004.011-.026zM32.191 11.771l.012.026.026.004-.019.021.004.029-.024-.013-.024.013.005-.029-.019-.021.026-.004.011-.026zM32.191 11.943l.012.026.026.004-.019.021.004.029-.024-.013-.024.013.005-.029-.019-.021.026-.004.011-.026zM32.315 11.324l.011.026.026.004-.019.021.004.029-.023-.013-.024.013.004-.029-.019-.021.026-.004.012-.026zM32.315 11.498l.011.026.026.004-.019.021.004.029-.023-.014-.024.014.004-.029-.019-.021.026-.004.012-.026zM32.315 11.67l.011.026.026.004-.019.021.004.029-.023-.014-.024.014.004-.029-.019-.021.026-.004.012-.026zM32.315 11.842l.011.026.026.005-.019.02.004.029-.023-.013-.024.013.004-.029-.019-.02.026-.005.012-.026zM32.315 12.015l.011.026.026.004-.019.021.004.029-.023-.014-.024.014.004-.029-.019-.021.026-.004.012-.026zM32.438 11.425l.011.026.027.004-.02.021.005.029-.024-.013-.024.013.005-.029-.02-.021.027-.004.011-.026zM32.438 11.598l.011.026.027.004-.02.021.005.029-.024-.014-.024.014.005-.029-.02-.021.027-.004.011-.026zM32.438 11.771l.011.026.027.004-.02.021.005.029-.024-.013-.024.013.005-.029-.02-.021.027-.004.011-.026zM32.438 11.943l.011.026.027.004-.02.021.005.029-.024-.013-.024.013.005-.029-.02-.021.027-.004.011-.026zM32.561 11.324l.012.026.026.004-.019.021.004.029-.024-.013-.023.013.004-.029-.019-.021.026-.004.011-.026zM32.561 11.498l.012.026.026.004-.019.021.004.029-.024-.014-.023.014.004-.029-.019-.021.026-.004.011-.026zM32.561 11.67l.012.026.026.004-.019.021.004.029-.024-.014-.023.014.004-.029-.019-.021.026-.004.011-.026zM32.561 11.842l.012.026.026.005-.019.02.004.029-.024-.013-.023.013.004-.029-.019-.02.026-.005.011-.026zM32.561 12.015l.012.026.026.004-.019.021.004.029-.024-.014-.023.014.004-.029-.019-.021.026-.004.011-.026zM32.685 11.425l.011.026.026.004-.019.021.005.029-.024-.013-.024.013.004-.029-.019-.021.026-.004.012-.026zM32.685 11.598l.011.026.026.004-.019.021.005.029-.024-.014-.024.014.004-.029-.019-.021.026-.004.012-.026zM32.685 11.771l.011.026.026.004-.019.021.005.029-.024-.013-.024.013.004-.029-.019-.021.026-.004.012-.026zM32.685 11.943l.011.026.026.004-.019.021.005.029-.024-.013-.024.013.004-.029-.019-.021.026-.004.012-.026zM32.807 11.324l.012.026.026.004-.019.021.004.029-.024-.013-.024.013.005-.029-.019-.021.026-.004.011-.026zM32.807 11.498l.012.026.026.004-.019.021.004.029-.024-.014-.024.014.005-.029-.019-.021.026-.004.011-.026zM32.807 11.67l.012.026.026.004-.019.021.004.029-.024-.014-.024.014.005-.029-.019-.021.026-.004.011-.026zM32.807 11.842l.012.026.026.005-.019.02.004.029-.024-.013-.024.013.005-.029-.019-.02.026-.005.011-.026zM32.807 12.015l.012.026.026.004-.019.021.004.029-.024-.014-.024.014.005-.029-.019-.021.026-.004.011-.026zM13.402 13.055h-1.436a2.812 2.812 0 0 0-3.324-1.88 2.814 2.814 0 0 0 .873 5.541 2.81 2.81 0 0 0 2.585-2.814v-.063l1.302-.784z"/>
      <path fill="#263238" style="fill:var(--color2, #263238)" d="M7.93 14.84a2.089 2.089 0 0 1-.171.254.73.73 0 0 0-.07-.088c.177-.237.309-.505.39-.789l.134.04c-.007.016-.02.02-.039.018a3.535 3.535 0 0 1-.154.384l.047.013c0 .01-.011.018-.032.019v1.031h-.106v-.882zm1.108.039c.013-.06.03-.151.043-.239h-.322v.947c0 .117-.042.138-.269.138a.454.454 0 0 0-.04-.112h.175c.021 0 .028-.007.028-.028v-.945h-.26a1.415 1.415 0 0 1-.164.307.432.432 0 0 0-.082-.066c.133-.2.224-.424.267-.66l.134.036c0 .011-.014.018-.035.016-.022.09-.05.179-.082.266h.772a2.88 2.88 0 0 1-.073.356l-.093-.016zm-.518.054c-.005.011-.016.018-.036.018a1.59 1.59 0 0 1-.246.541.604.604 0 0 0-.086-.056c.115-.163.195-.348.237-.543l.131.039zm.588.546a2.234 2.234 0 0 0-.222-.559l.096-.034c.102.173.179.359.23.554l-.104.039zM9.882 14.555l.061.016-.01.023c-.012.24-.065.475-.156.697.071.051.135.11.192.176l-.066.089a1.064 1.064 0 0 0-.173-.169.876.876 0 0 1-.32.339.488.488 0 0 0-.068-.089.765.765 0 0 0 .304-.316 2.289 2.289 0 0 0-.184-.125l-.02.071-.093-.048c.041-.143.091-.349.138-.558h-.164v-.103h.184c.026-.121.048-.238.068-.342l.133.016c0 .011-.011.018-.032.02-.018.093-.041.198-.065.306h.246l.024-.004zm-.292.107c-.034.151-.071.303-.106.436.068.038.138.082.206.129.073-.18.119-.37.134-.564H9.59zm1.235.279v.105h-.391v.537c0 .125-.048.144-.335.141a.583.583 0 0 0-.04-.108h.194c.055 0 .071 0 .071-.034v-.538h-.396v-.105h.396v-.276h.053a1.67 1.67 0 0 0 .24-.264h-.623v-.103h.705l.021-.007.086.054a.054.054 0 0 1-.026.016 2.052 2.052 0 0 1-.346.375v.201l.391.007zM10.687 11.956H7.906v1.754h2.781v-1.754z"/>
      <path fill="#fff" style="fill:var(--color1, #fff)" d="m8.234 12.06.068.137.15.021-.109.107.026.149-.135-.071-.134.071.026-.149-.109-.107.15-.021.067-.137zM8.671 12.006l.035.071.077.011-.056.054.013.077-.07-.036-.069.036.013-.077-.056-.054.078-.011.034-.071zM8.765 12.362l.034.071.078.011-.057.055.013.077-.069-.036-.07.036.013-.077-.056-.055.077-.011.035-.071zM8.534 12.595l.034.07.078.011-.056.055.013.077-.07-.037-.069.037.013-.077-.056-.055.078-.011.034-.07zM8.214 12.702l.034.07.078.011-.056.055.013.077-.07-.036-.069.036.013-.077-.056-.055.078-.011.034-.07z"/>
      <path fill="none" stroke="#263238" style="stroke:var(--color2, #263238)" stroke-linejoin="round" stroke-linecap="round" stroke-width=".377" d="M24.916 8.921v-2.52M16.939 6.4v2.52"/>
      <path fill="#fff" style="fill:var(--color1, #fff)" d="M19.379 12.702s.212 1.484.17 1.866-.127.763-1.185.339-2.963.34-4.19 1.823-3.555 6.444-3.555 7.038c0 .593.465 1.395 1.311 1.526s2.836-2.289 2.836-2.289.846 4.79.846 5.169c0 .378-.379 2.883-.379 2.883h11.978l-.466-3.095.847-6.826s3.513 4.79 4.275 5.005 1.947-.17 2.243-1.06c.297-.89-.17-1.823-.763-2.501s-4.317-6.656-4.996-7.207c-.68-.55-2.582-.594-3.259-.424s-1.82.424-2.117.254c-.296-.17-.296-1.78 0-2.501.003.002-2.579.68-3.595.002z"/>
      <path fill="#fff" style="fill:var(--color1, #fff)" d="M28.873 24.865a12.213 12.213 0 0 0 1.621-1.052 3.623 3.623 0 0 1 2.58-.732c.844.091 1.302 1.143 1.324 2.195s-.548 1.692-1.575 1.852c-1.027.16-2.238-.068-2.99-.251a9.94 9.94 0 0 0-1.211-.229s-.981-1.51.251-1.784z"/>
      <path fill="#fff" style="fill:var(--color1, #fff)" d="M34.397 25.276c-.022-1.053-.479-2.104-1.324-2.195a3.623 3.623 0 0 0-2.58.732l-.115.088c.983.034 2.97.436 2.659 3.185.891-.214 1.381-.834 1.36-1.809zM19.379 12.702s.212 1.484.17 1.866c-.032.286-.088.574-.559.519.675 1.105 2.635 3.699 4.464.164-.213.013-.385 0-.477-.051-.296-.17-.296-1.78 0-2.501 0 .004-2.582.683-3.597.004z"/>
      <path fill="#263238" style="fill:var(--color2, #263238)" d="M19.379 12.702s.055.386.103.814a3.743 3.743 0 0 0 1.589.433 3.067 3.067 0 0 0 1.729-.501c.027-.255.087-.505.176-.746 0 0-2.582.678-3.597 0zM17.053 7.571h-.233a.52.52 0 0 0-.519.52v1.99c0 .287.233.52.519.52h.233a.52.52 0 0 0 .519-.52v-1.99a.52.52 0 0 0-.519-.52z"/>
      <path fill="#fff" style="fill:var(--color1, #fff)" d="M17.066 7.573h-.26v3.026h.26V7.573z"/>
      <path fill="#263238" style="fill:var(--color2, #263238)" d="M25.057 7.571h-.233a.52.52 0 0 0-.519.52v1.99c0 .287.233.52.519.52h.233a.52.52 0 0 0 .519-.52v-1.99a.52.52 0 0 0-.519-.52z"/>
      <path fill="#fff" style="fill:var(--color1, #fff)" d="M25.07 7.573h-.26v3.026h.26V7.573zM14.936 9.964a.6.6 0 0 0-.474.317c-.19.317-.79 1.488-.727 1.837s2.687 2.818 2.687 2.976c0 .158-2.086 3.008-3.478 4.275s-2.497 2.691-2.687 3.831c-.19 1.14.474 2.09 1.17 2.28s1.549-.221 2.529-1.457 3.668-6.618 4.079-8.45c0 0 .094-.82-.285-1.299s-1.328-1.583-1.328-1.583.19-2.185.032-2.343-.316.19-.316.19-.147-.733-.348-.697c-.22.039-.284.317-.284.317s-.158-.637-.569-.194z"/>
      <path fill="#fff" style="fill:var(--color1, #fff)" d="M14.332 17.89a16.7 16.7 0 0 1-1.388 1.477c-1.392 1.266-2.497 2.691-2.687 3.831s.474 2.09 1.17 2.28c.696.19 1.549-.222 2.529-1.457.564-.711 1.693-2.794 2.628-4.785-1.425-.379-2.013-.97-2.252-1.346zM17.544 6.001s-.055 4.408.111 5.235 1.65 2.232 3.358 2.287c1.708.055 3.053-1.515 3.218-2.342s0-4.132-.027-5.455c-.027-1.323-1.926-2.507-3.85-2.204s-2.92 1.432-2.81 2.48z"/>
      <path fill="#fff" style="fill:var(--color1, #fff)" d="M22.138 10.519s-1.486.19-2.146-.466c0 0 .164 1.02.66 1.185s1.486-.72 1.486-.72z"/>
      <path fill="#263238" style="fill:var(--color2, #263238)" d="M22.468 4.843s.713 2.292 1.795 2.885c-.024-.786-.052-1.524-.061-2.003-.028-1.323-1.926-2.507-3.85-2.204s-2.916 1.432-2.806 2.48c0 0-.009.72-.008 1.633.929-.401 3.375-1.519 4.931-2.79zM22.763 13.104s0 .999-.748 2.592-.78 3.185-.281 4.371 1.84 1.656 3.276 1.125c1.437-.531 1.621-2.904 1.465-4.341s-1.556-3.123-1.871-3.966c-.315-.843-.53-1.28-.53-1.28s-.811 1.124-1.311 1.373l-.002.126zM26.61 21.943l-5.318-.215a.426.426 0 0 0-.442.408l-.296 7.355a.427.427 0 0 0 .408.443l5.318.215a.426.426 0 0 0 .442-.408l.296-7.355a.427.427 0 0 0-.408-.443z"/>
      <path fill="#fff" style="fill:var(--color1, #fff)" d="M29.32 24.918s-2.723-.848-3.187-.991-3.139 1.858-3.246 2.144c-.106.286.285.286.285.286s-.164.285.082.428c.078.052.16.097.246.134 0 0-.142.322.143.429s.678-.179.678-.179l.642-.464s-.772.946-.607 1.144c.227.271.372-.02.372-.02l.887-1.053.891-.429s.713.429 1.855.464 1.392-.464 1.392-.464z"/>
    </symbol>
    <symbol id="icon-Shared-goals-bro-1" viewBox="0 0 32 32">
      <path fill="#fff" style="fill:var(--color1, #fff)" d="M11.692 24.013h-.49v1.665h.49v-1.665z"/>
      <path style="fill:var(--color5, #000)" opacity=".2" d="M11.692 24.013h-.49v1.665h.49v-1.665z"/>
      <path fill="#fff" style="fill:var(--color1, #fff)" d="M12.182 24.197h-.49v1.482h.49v-1.482zM12.794 24.197h-.346v1.482h.346v-1.482z"/>
      <path fill="#fff" style="fill:var(--color1, #fff)" opacity=".9" d="M12.794 24.197h-.346v1.482h.346v-1.482z"/>
      <path fill="#fff" style="fill:var(--color1, #fff)" d="M12.449 24.04h-.314v1.638h.314V24.04z"/>
      <path style="fill:var(--color5, #000)" opacity=".1" d="M12.449 24.04h-.314v1.638h.314V24.04z"/>
      <path fill="#fff" style="fill:var(--color1, #fff)" d="M13.284 24.013h-.49v1.665h.49v-1.665z"/>
      <path fill="#fff" style="fill:var(--color1, #fff)" d="M13.773 24.197h-.49v1.482h.49v-1.482z"/>
      <path fill="#263238" style="fill:var(--color2, #263238)" opacity=".2" d="M13.773 24.197h-.49v1.482h.49v-1.482z"/>
      <path fill="#fff" style="fill:var(--color1, #fff)" d="M14.385 24.197h-.346v1.482h.346v-1.482z"/>
      <path fill="#fff" style="fill:var(--color1, #fff)" opacity=".8" d="M14.385 24.197h-.346v1.482h.346v-1.482z"/>
      <path fill="#fff" style="fill:var(--color1, #fff)" d="M14.04 24.04h-.314v1.638h.314V24.04z"/>
      <path style="fill:var(--color5, #000)" opacity=".1" d="M14.04 24.04h-.314v1.638h.314V24.04z"/>
      <path fill="#fff" style="fill:var(--color1, #fff)" d="M16.721 25.679h.49v-1.665h-.49v1.665z"/>
      <path style="fill:var(--color5, #000)" opacity=".2" d="M16.721 25.679h.49v-1.665h-.49v1.665z"/>
      <path fill="#fff" style="fill:var(--color1, #fff)" d="M16.231 25.679h.49v-1.482h-.49v1.482zM15.62 25.679h.346v-1.482h-.346v1.482z"/>
      <path fill="#fff" style="fill:var(--color1, #fff)" opacity=".9" d="M15.62 25.679h.346v-1.482h-.346v1.482z"/>
      <path fill="#fff" style="fill:var(--color1, #fff)" d="M15.965 25.678h.314V24.04h-.314v1.638z"/>
      <path style="fill:var(--color5, #000)" opacity=".1" d="M15.965 25.678h.314V24.04h-.314v1.638z"/>
      <path fill="#fff" style="fill:var(--color1, #fff)" d="M15.13 25.679h.49v-1.665h-.49v1.665zM14.64 25.679h.49v-1.482h-.49v1.482z"/>
      <path fill="#263238" style="fill:var(--color2, #263238)" opacity=".2" d="M14.64 25.679h.49v-1.482h-.49v1.482z"/>
      <path fill="#fff" style="fill:var(--color1, #fff)" d="M14.374 25.678h.314V24.04h-.314v1.638z"/>
      <path style="fill:var(--color5, #000)" opacity=".1" d="M14.374 25.678h.314V24.04h-.314v1.638z"/>
      <path fill="#fff" style="fill:var(--color1, #fff)" d="M19.544 25.679h.49v-1.665h-.49v1.665z"/>
      <path style="fill:var(--color5, #000)" opacity=".2" d="M19.544 25.679h.49v-1.665h-.49v1.665z"/>
      <path fill="#fff" style="fill:var(--color1, #fff)" d="M19.053 25.679h.49v-1.482h-.49v1.482zM18.442 25.679h.346v-1.482h-.346v1.482z"/>
      <path fill="#fff" style="fill:var(--color1, #fff)" opacity=".9" d="M18.442 25.679h.346v-1.482h-.346v1.482z"/>
      <path fill="#fff" style="fill:var(--color1, #fff)" d="M18.787 25.678h.314V24.04h-.314v1.638z"/>
      <path style="fill:var(--color5, #000)" opacity=".1" d="M18.787 25.678h.314V24.04h-.314v1.638z"/>
      <path fill="#fff" style="fill:var(--color1, #fff)" d="M17.952 25.679h.49v-1.665h-.49v1.665zM20.352 25.62l.322-.086-.433-1.615-.322.086.433 1.615zM17.462 25.679h.49v-1.482h-.49v1.482z"/>
      <path fill="#263238" style="fill:var(--color2, #263238)" opacity=".2" d="M17.462 25.679h.49v-1.482h-.49v1.482z"/>
      <path fill="#fff" style="fill:var(--color1, #fff)" d="M17.196 25.678h.314V24.04h-.314v1.638z"/>
      <path style="fill:var(--color5, #000)" opacity=".1" d="M17.196 25.678h.314V24.04h-.314v1.638z"/>
      <path fill="#fff" style="fill:var(--color1, #fff)" d="m20.516 27.841.329-.088-.431-1.608-.329.088.431 1.608z"/>
      <path style="fill:var(--color5, #000)" opacity=".2" d="m20.516 27.841.329-.088-.431-1.608-.329.088.431 1.608z"/>
      <path fill="#fff" style="fill:var(--color1, #fff)" d="M19.671 27.825h.49v-1.482h-.49v1.482zM19.059 27.825h.346v-1.482h-.346v1.482z"/>
      <path fill="#fff" style="fill:var(--color1, #fff)" opacity=".9" d="M19.059 27.825h.346v-1.482h-.346v1.482z"/>
      <path fill="#fff" style="fill:var(--color1, #fff)" d="M19.404 27.825h.314v-1.638h-.314v1.638z"/>
      <path style="fill:var(--color5, #000)" opacity=".1" d="M19.404 27.825h.314v-1.638h-.314v1.638z"/>
      <path fill="#fff" style="fill:var(--color1, #fff)" d="M18.57 27.825h.49V26.16h-.49v1.665zM18.079 27.825h.49v-1.482h-.49v1.482z"/>
      <path fill="#263238" style="fill:var(--color2, #263238)" opacity=".2" d="M18.079 27.825h.49v-1.482h-.49v1.482z"/>
      <path fill="#fff" style="fill:var(--color1, #fff)" d="M17.468 27.825h.346v-1.482h-.346v1.482z"/>
      <path fill="#fff" style="fill:var(--color1, #fff)" opacity=".8" d="M17.468 27.825h.346v-1.482h-.346v1.482z"/>
      <path fill="#fff" style="fill:var(--color1, #fff)" d="M17.813 27.825h.314v-1.638h-.314v1.638z"/>
      <path style="fill:var(--color5, #000)" opacity=".1" d="M17.813 27.825h.314v-1.638h-.314v1.638z"/>
      <path fill="#fff" style="fill:var(--color1, #fff)" d="M15.132 26.161h-.49v1.665h.49v-1.665z"/>
      <path style="fill:var(--color5, #000)" opacity=".2" d="M15.132 26.161h-.49v1.665h.49v-1.665z"/>
      <path fill="#fff" style="fill:var(--color1, #fff)" d="M15.622 26.344h-.49v1.482h.49v-1.482zM16.234 26.344h-.346v1.482h.346v-1.482z"/>
      <path fill="#fff" style="fill:var(--color1, #fff)" opacity=".9" d="M16.234 26.344h-.346v1.482h.346v-1.482z"/>
      <path fill="#fff" style="fill:var(--color1, #fff)" d="M15.888 26.187h-.314v1.638h.314v-1.638z"/>
      <path style="fill:var(--color5, #000)" opacity=".1" d="M15.888 26.187h-.314v1.638h.314v-1.638z"/>
      <path fill="#fff" style="fill:var(--color1, #fff)" d="M16.723 26.161h-.49v1.665h.49v-1.665zM17.213 26.344h-.49v1.482h.49v-1.482z"/>
      <path fill="#263238" style="fill:var(--color2, #263238)" opacity=".2" d="M17.213 26.344h-.49v1.482h.49v-1.482z"/>
      <path fill="#fff" style="fill:var(--color1, #fff)" d="M17.479 26.187h-.314v1.638h.314v-1.638z"/>
      <path style="fill:var(--color5, #000)" opacity=".1" d="M17.479 26.187h-.314v1.638h.314v-1.638z"/>
      <path fill="#fff" style="fill:var(--color1, #fff)" d="M12.31 26.161h-.49v1.665h.49v-1.665z"/>
      <path style="fill:var(--color5, #000)" opacity=".2" d="M12.31 26.161h-.49v1.665h.49v-1.665z"/>
      <path fill="#fff" style="fill:var(--color1, #fff)" d="M12.799 26.344h-.49v1.482h.49v-1.482zM13.411 26.344h-.346v1.482h.346v-1.482z"/>
      <path fill="#fff" style="fill:var(--color1, #fff)" opacity=".9" d="M13.411 26.344h-.346v1.482h.346v-1.482z"/>
      <path fill="#fff" style="fill:var(--color1, #fff)" d="M13.066 26.187h-.314v1.638h.314v-1.638z"/>
      <path style="fill:var(--color5, #000)" opacity=".1" d="M13.066 26.187h-.314v1.638h.314v-1.638z"/>
      <path fill="#fff" style="fill:var(--color1, #fff)" d="M13.901 26.161h-.49v1.665h.49v-1.665zM11.819 26.232l-.32-.086-.431 1.608.32.086.431-1.608z"/>
      <path fill="#fff" style="fill:var(--color1, #fff)" d="M14.39 26.344h-.49v1.482h.49v-1.482z"/>
      <path fill="#263238" style="fill:var(--color2, #263238)" opacity=".2" d="M14.39 26.344h-.49v1.482h.49v-1.482z"/>
      <path fill="#fff" style="fill:var(--color1, #fff)" d="M14.657 26.187h-.314v1.638h.314v-1.638z"/>
      <path style="fill:var(--color5, #000)" opacity=".1" d="M14.657 26.187h-.314v1.638h.314v-1.638z"/>
      <path fill="#263238" style="fill:var(--color2, #263238)" d="M11.579 29.084h-.49l-.067-.947h.624l-.067.947zM20.911 29.084h-.49l-.067-.947h.624l-.067.947z"/>
      <path fill="#fff" style="fill:var(--color1, #fff)" d="M21.45 23.385h-10.9a.236.236 0 0 0-.235.235v4.453a.236.236 0 0 0 .235.235h10.9a.236.236 0 0 0 .235-.235V23.62a.236.236 0 0 0-.235-.235zm-.235.47v1.823H10.783v-1.823h10.432zm-10.43 3.985v-1.825h10.432v1.825H10.785z"/>
      <path fill="#263238" style="fill:var(--color2, #263238)" d="M19.839 14.031h-7.542a.44.44 0 0 0-.439.439v1.619a.44.44 0 0 0 .439.439h7.542a.44.44 0 0 0 .439-.439V14.47a.44.44 0 0 0-.439-.439z"/>
      <path fill="#fff" style="fill:var(--color1, #fff)" d="M19.704 13.897h-7.542a.44.44 0 0 0-.439.439v1.619a.44.44 0 0 0 .439.439h7.542a.439.439 0 0 0 .439-.439v-1.619a.44.44 0 0 0-.439-.439z"/>
      <path fill="#fff" style="fill:var(--color1, #fff)" d="M13.587 15.883h-1.109V14.48h.739l.37.37v1.033z"/>
      <path fill="#fff" style="fill:var(--color1, #fff)" opacity=".5" d="M13.587 15.883h-1.109V14.48h.739l.37.37v1.033z"/>
      <path fill="#fff" style="fill:var(--color1, #fff)" d="M13.217 14.85h.37l-.37-.37v.37z"/>
      <path fill="#858585" style="fill:var(--color6, #858585)" d="M12.725 15.224a.07.07 0 0 1 0-.14h.616a.07.07 0 0 1 0 .14h-.616zM12.725 15.519a.07.07 0 0 1 0-.14h.482a.07.07 0 0 1 0 .14h-.482z"/>
      <path fill="#fff" style="fill:var(--color1, #fff)" d="M16.391 15.305h-2.064a.146.146 0 0 0-.097.244c.025.027.06.043.097.046h2.064v-.29z"/>
      <path fill="#263238" style="fill:var(--color2, #263238)" d="M16.438 14.912h-.156v-.074l.148-.35h.089v.35h.038v.074h-.038v.094h-.081v-.094zm0-.074v-.202l-.08.202.08-.001zM16.595 14.884v-.04h.077v.046c0 .037.016.051.042.051s.042-.013.042-.051v-.116c0-.037-.017-.051-.042-.051s-.042.014-.042.051v.005h-.077l.015-.289h.214v.074h-.142l-.006.123a.076.076 0 0 1 .071-.038c.059 0 .09.042.09.118v.117c0 .083-.042.128-.122.128s-.12-.045-.12-.128zM16.888 14.694v-.128c-.001-.011 0-.022.004-.032s.009-.02.016-.028c.007-.008.016-.015.026-.019s.021-.007.032-.007.022.002.032.007a.083.083 0 0 1 .043.047.07.07 0 0 1 .004.032v.128c.001.011 0 .022-.004.032s-.009.02-.017.028c-.007.008-.016.015-.026.019s-.021.007-.032.007-.022-.002-.032-.007-.019-.011-.026-.019c-.007-.008-.013-.018-.016-.028s-.005-.021-.004-.032zm.105.004v-.137c0-.022-.01-.032-.026-.032s-.027.01-.027.032v.137c0 .023.01.033.027.033s.026-.01.026-.033zm.162-.209h.052l-.2.518h-.052l.2-.518zm-.039.442v-.128c-.001-.011 0-.022.004-.032s.009-.02.017-.028c.007-.008.016-.015.026-.019s.021-.007.032-.007.022.002.032.007a.083.083 0 0 1 .043.047.07.07 0 0 1 .004.032v.128c.001.011 0 .022-.004.032s-.009.02-.017.028c-.007.008-.016.015-.026.019s-.021.007-.032.007-.022-.002-.032-.007a.083.083 0 0 1-.043-.047.07.07 0 0 1-.004-.032zm.104.004v-.137c0-.023-.01-.033-.027-.033s-.026.01-.026.033v.137c0 .023.01.033.026.033s.027-.01.027-.033zM19.839 16.929h-7.542a.44.44 0 0 0-.439.439v1.619c0 .243.197.439.439.439h7.542a.44.44 0 0 0 .439-.439v-1.619a.44.44 0 0 0-.439-.439z"/>
      <path fill="#fff" style="fill:var(--color1, #fff)" d="M19.704 16.795h-7.542a.44.44 0 0 0-.439.439v1.619c0 .243.197.439.439.439h7.542a.439.439 0 0 0 .439-.439v-1.619a.44.44 0 0 0-.439-.439z"/>
      <path fill="#fff" style="fill:var(--color1, #fff)" d="M18.019 18.185h-3.692a.146.146 0 0 0-.097.244c.025.027.06.043.097.046h3.692v-.29z"/>
      <path fill="#263238" style="fill:var(--color2, #263238)" d="M16.292 17.766v-.046c-.003-.021.001-.042.011-.061s.024-.034.043-.045a.104.104 0 0 1-.05-.101v-.021c0-.033.013-.064.036-.088s.055-.036.088-.036c.033 0 .064.013.088.036s.036.055.036.088v.021a.104.104 0 0 1-.05.101.108.108 0 0 1 .054.106v.046c0 .034-.013.067-.038.09s-.057.038-.09.038-.067-.013-.09-.038a.129.129 0 0 1-.038-.09h.001zm.173-.004v-.05c0-.039-.016-.058-.046-.058s-.046.019-.046.058v.05c0 .039.016.058.046.058s.046-.019.046-.058zm0-.234v-.041c0-.034-.015-.052-.043-.052s-.043.018-.043.052v.041c0 .034.015.052.043.052s.04-.018.04-.052h.003zM16.595 17.764v-.04h.077v.046c0 .037.016.051.042.051s.042-.013.042-.051v-.116c0-.037-.017-.051-.042-.051s-.042.014-.042.051v.005h-.077l.015-.289h.214v.074h-.142l-.006.124a.076.076 0 0 1 .071-.038c.059 0 .09.042.09.118v.116a.127.127 0 0 1-.033.092.122.122 0 0 1-.139.029.106.106 0 0 1-.04-.029c-.011-.012-.02-.027-.026-.043s-.008-.032-.007-.049h.001zM16.888 17.574v-.128c-.001-.011 0-.022.004-.032s.009-.02.016-.028c.007-.008.016-.015.026-.019s.021-.007.032-.007.022.002.032.007a.083.083 0 0 1 .043.047.07.07 0 0 1 .004.032v.128c.001.011 0 .022-.004.032s-.009.02-.017.028c-.007.008-.016.015-.026.019s-.021.007-.032.007-.022-.002-.032-.007-.019-.011-.026-.019c-.007-.008-.013-.018-.016-.028s-.005-.021-.004-.032zm.105.004v-.137c0-.022-.01-.033-.026-.033s-.027.01-.027.033v.137c0 .023.01.033.027.033s.026-.01.026-.033zm.162-.209h.052l-.2.518h-.052l.2-.518zm-.039.442v-.128c-.001-.011 0-.022.004-.032s.009-.02.017-.028c.007-.008.016-.015.026-.019s.021-.007.032-.007.022.002.032.007a.083.083 0 0 1 .043.047.07.07 0 0 1 .004.032v.128c.001.011 0 .022-.004.032s-.009.02-.017.028c-.007.008-.016.015-.026.019s-.021.007-.032.007-.022-.002-.032-.007a.083.083 0 0 1-.043-.047.07.07 0 0 1-.004-.032zm.104.004v-.137c0-.023-.01-.033-.027-.033s-.026.01-.026.033v.137c0 .023.01.033.026.033s.027-.01.027-.033z"/>
      <path fill="#fff" style="fill:var(--color1, #fff)" d="M13.587 18.763h-1.109V17.36h.739l.37.37v1.033z"/>
      <path fill="#fff" style="fill:var(--color1, #fff)" opacity=".5" d="M13.587 18.763h-1.109V17.36h.739l.37.37v1.033z"/>
      <path fill="#858585" style="fill:var(--color6, #858585)" d="M12.725 18.104a.07.07 0 0 1 0-.14h.616a.07.07 0 0 1 0 .14h-.616zM12.725 18.399a.07.07 0 0 1 0-.14h.482a.07.07 0 0 1 0 .14h-.482z"/>
      <path fill="#fff" style="fill:var(--color1, #fff)" d="M13.217 17.73h.37l-.37-.37v.37z"/>
      <path fill="#263238" style="fill:var(--color2, #263238)" d="M20.87 10.162h-9.605a.44.44 0 0 0-.439.439v2.232a.44.44 0 0 0 .439.439h9.605a.44.44 0 0 0 .439-.439v-2.232a.44.44 0 0 0-.439-.439z"/>
      <path fill="#fff" style="fill:var(--color1, #fff)" d="M20.735 10.027H11.13a.439.439 0 0 0-.439.439v2.232a.44.44 0 0 0 .439.439h9.605a.44.44 0 0 0 .439-.439v-2.232a.44.44 0 0 0-.439-.439z"/>
      <path fill="#fff" style="fill:var(--color1, #fff)" d="M14.35 12.881h-2.054v-2.598h1.369l.685.684v1.914z"/>
      <path fill="#fff" style="fill:var(--color1, #fff)" opacity=".7" d="M14.35 12.881h-2.054v-2.598h1.369l.685.684v1.914z"/>
      <path fill="#fff" style="fill:var(--color1, #fff)" d="M13.665 10.968h.685l-.685-.684v.684z"/>
      <path fill="#263238" style="fill:var(--color2, #263238)" d="M15.158 11.499h-.118v-.078c.093 0 .128-.021.152-.089h.074v.704h-.111l.002-.537zM15.398 11.871V11.5c0-.045.018-.087.049-.119s.074-.049.119-.049.087.018.119.049.049.074.049.119v.371c0 .045-.018.087-.049.119s-.074.049-.119.049-.087-.018-.119-.049-.049-.074-.049-.119zm.226.007v-.384c0-.05-.022-.069-.058-.069s-.058.019-.058.069v.384c0 .051.022.07.058.07s.058-.019.058-.07zM15.801 11.871V11.5c0-.045.018-.087.049-.119s.074-.049.119-.049.087.018.119.049.049.074.049.119v.371c0 .045-.018.087-.049.119s-.074.049-.119.049-.087-.018-.119-.049-.049-.074-.049-.119zm.226.007v-.384c0-.05-.022-.069-.058-.069s-.058.019-.058.069v.384c0 .051.022.07.058.07s.058-.019.058-.07zM16.206 11.611v-.176c0-.028.011-.055.031-.076s.047-.031.076-.031a.107.107 0 0 1 .107.107v.176a.107.107 0 0 1-.107.107.107.107 0 0 1-.107-.107zm.143.006v-.186c0-.031-.014-.045-.036-.045s-.037.013-.037.045v.186c0 .031.013.044.037.044s.036-.013.036-.044zm.22-.285h.071l-.273.704h-.07l.273-.704zm-.054.603v-.177c0-.014.003-.028.008-.041a.101.101 0 0 1 .058-.058c.013-.005.027-.008.041-.008s.028.003.041.008a.101.101 0 0 1 .058.058.115.115 0 0 1 .008.041v.177c0 .014-.003.028-.008.041a.101.101 0 0 1-.058.058c-.013.005-.027.008-.041.008s-.028-.003-.041-.008a.101.101 0 0 1-.058-.058.115.115 0 0 1-.008-.041zm.144.006v-.187c0-.031-.014-.044-.037-.044s-.036.013-.036.044v.187c0 .031.013.044.036.044s.037-.013.037-.044zM16.908 11.818v-.278c0-.032.013-.062.035-.085s.053-.035.085-.035c.032 0 .062.013.085.035s.035.053.035.085v.055h-.077v-.06c0-.034-.017-.048-.041-.048s-.04.014-.04.048v.289c0 .034.016.047.04.047s.041-.013.041-.047v-.079h.077v.074c0 .032-.013.062-.035.085s-.053.035-.085.035c-.032 0-.062-.013-.085-.035s-.035-.053-.035-.085zM17.192 11.814v-.272a.123.123 0 0 1 .123-.123c.032 0 .064.013.087.036a.124.124 0 0 1 .036.087v.272a.123.123 0 0 1-.123.123.124.124 0 0 1-.087-.036.124.124 0 0 1-.036-.087zm.165.005v-.282c0-.037-.016-.051-.042-.051s-.042.014-.042.051v.282c0 .037.017.051.042.051s.042-.014.042-.051zM17.493 11.419h.116l.052.371.052-.371h.116v.518h-.077v-.392l-.059.392h-.068l-.059-.392v.392h-.071l-.002-.518zM17.891 11.419h.12c.081 0 .121.045.121.128v.051c0 .083-.04.128-.121.128h-.038v.211h-.081v-.518zm.12.233c.026 0 .04-.012.04-.049v-.064c0-.037-.014-.049-.04-.049h-.038v.159l.038.003zM18.176 11.419h.081v.444h.134v.074h-.215v-.518zM18.432 11.419h.221v.074h-.14v.136h.111v.074h-.111v.159h.14v.074h-.221v-.518zM18.762 11.494h-.084v-.074h.251v.074h-.085v.444h-.081v-.444zM18.968 11.419h.221v.074h-.14v.136h.111v.074h-.111v.159h.14v.074h-.221v-.518zM19.236 11.419h.124c.081 0 .121.045.121.128v.262c0 .083-.04.128-.121.128h-.124v-.518zm.123.444c.026 0 .042-.013.042-.05v-.269c0-.037-.015-.05-.042-.05h-.041v.369h.041zM19.839 19.828h-7.542a.44.44 0 0 0-.439.439v1.619a.44.44 0 0 0 .439.439h7.542a.44.44 0 0 0 .439-.439v-1.619a.44.44 0 0 0-.439-.439z"/>
      <path fill="#fff" style="fill:var(--color1, #fff)" d="M19.704 19.693h-7.542a.44.44 0 0 0-.439.439v1.619a.44.44 0 0 0 .439.439h7.542a.439.439 0 0 0 .439-.439v-1.619a.44.44 0 0 0-.439-.439z"/>
      <path fill="#fff" style="fill:var(--color1, #fff)" d="M17.759 21.066h-3.432a.145.145 0 0 0-.144.144.145.145 0 0 0 .144.144h3.432v-.289zM13.587 21.643h-1.109V20.24h.739l.37.369v1.034z"/>
      <path fill="#fff" style="fill:var(--color1, #fff)" opacity=".5" d="M13.587 21.643h-1.109V20.24h.739l.37.369v1.034z"/>
      <path fill="#858585" style="fill:var(--color6, #858585)" d="M12.725 20.985a.07.07 0 0 1 0-.14h.616a.07.07 0 0 1 0 .14h-.616zM12.724 21.279c-.018 0-.036-.007-.049-.02a.07.07 0 0 1 0-.098.07.07 0 0 1 .049-.02h.482c.018 0 .036.007.049.02a.07.07 0 0 1 0 .098.07.07 0 0 1-.049.02h-.482z"/>
      <path fill="#fff" style="fill:var(--color1, #fff)" d="M13.217 20.61h.37l-.37-.369v.369z"/>
      <path fill="#263238" style="fill:var(--color2, #263238)" d="M16.461 20.323h-.165v-.074h.244v.071l-.128.448h-.083l.132-.445zM16.591 20.645v-.272a.123.123 0 0 1 .123-.123.123.123 0 0 1 .123.123v.272a.123.123 0 0 1-.123.123.123.123 0 0 1-.123-.123zm.166.005v-.282c0-.037-.017-.051-.042-.051s-.042.014-.042.051v.282c0 .037.017.051.042.051s.042-.013.042-.051zM16.888 20.454v-.128c-.001-.011 0-.022.004-.032s.009-.02.016-.028c.007-.008.016-.015.026-.019s.021-.007.032-.007.022.002.032.007a.083.083 0 0 1 .043.047.07.07 0 0 1 .004.032v.128c.001.011 0 .022-.004.032s-.009.02-.017.028c-.007.008-.016.015-.026.019s-.021.007-.032.007-.022-.002-.032-.007-.019-.011-.026-.019c-.007-.008-.013-.018-.016-.028s-.005-.021-.004-.032zm.105.004v-.137c0-.023-.01-.033-.026-.033s-.027.01-.027.033v.137c0 .022.01.032.027.032s.026-.01.026-.032zm.159-.208h.052l-.2.517h-.052l.2-.517zm-.039.442v-.128c-.001-.011 0-.022.004-.032s.009-.02.017-.028c.007-.008.016-.015.026-.019s.021-.007.032-.007.022.002.032.007a.083.083 0 0 1 .043.047.07.07 0 0 1 .004.032v.128c.001.011 0 .022-.004.032s-.009.02-.017.028c-.007.008-.016.015-.026.019s-.021.007-.032.007-.022-.002-.032-.007a.083.083 0 0 1-.043-.047.07.07 0 0 1-.004-.032zm.105.003v-.136c0-.023-.01-.033-.027-.033s-.026.01-.026.033v.136c0 .023.01.033.026.033s.029-.01.029-.033h-.003zM7.58 7.053l1.689-1.306 1.689 1.306H7.58z"/>
      <path fill="#263238" style="fill:var(--color2, #263238)" d="M9.711 5.645h-.883V6.4h.883v-.755zM21.041 7.053l1.69-1.306 1.689 1.306h-3.379z"/>
      <path fill="#263238" style="fill:var(--color2, #263238)" d="M23.172 5.645h-.883V6.4h.883v-.755z"/>
      <path fill="#fff" style="fill:var(--color1, #fff)" d="m23.39 27.43-.036 1.056.547.026.199-1.082h-.71z"/>
      <path fill="#fff" style="fill:var(--color1, #fff)" d="M22.321 28.81c.184-.064.503-.173.623-.248.096-.06.23-.256.329-.311a.166.166 0 0 1 .132 0c.016.018.027.04.03.064.003.01.008.02.016.027s.018.012.028.013.021 0 .031-.005a.052.052 0 0 0 .023-.021.226.226 0 0 1 .064-.077c.084-.047.313-.061.388 0 .124.102.169.453.192.611.006.035 0 .227 0 .227h-1.994v-.088c0-.042.013-.084.038-.118s.06-.06.1-.074z"/>
      <path fill="#858585" style="fill:var(--color6, #858585)" d="M24.179 29.088h-1.996V29a.2.2 0 0 1 .011-.064h1.987c0 .067-.003.152-.003.152z"/>
      <path fill="#263238" style="fill:var(--color2, #263238)" d="m23.735 19.243-.419 8.589.768.128s.484-2.486.543-3.3c.014-.192 0-.771 0-.771l.543-2.675s.358-.33.399-1.903l-1.834-.068z"/>
      <path style="fill:var(--color5, #000)" opacity=".7" d="M24.872 22.567a3.75 3.75 0 0 1 .106-.368.43.43 0 0 1 .022-.049c.019-.182.048-.362.088-.541a.295.295 0 0 1 .102-.17.246.246 0 0 1 .162-.139 3.244 3.244 0 0 0-.108-.488c-.049-.168-.128-.328-.152-.502-.006-.045-.032-.091-.024-.097a1.555 1.555 0 0 1-.161-.073l-.01-.008a24.416 24.416 0 0 0-.025 2.435z"/>
      <path fill="#fff" style="fill:var(--color1, #fff)" d="m23.215 27.995.929.076.069-.301-.998-.078v.303zM25.896 27.3l.198 1.235.506-.04-.017-1.264-.687.069z"/>
      <path fill="#fff" style="fill:var(--color1, #fff)" d="M25.05 28.81c.185-.064.504-.173.623-.248.096-.06.23-.256.329-.311.021-.009.044-.014.066-.014s.045.005.066.014c.012.012.02.027.024.043.003.012.01.023.02.031s.022.013.034.015c.013.001.025-.001.037-.007s.021-.015.027-.026a.182.182 0 0 1 .051-.056c.084-.047.313-.061.388 0 .124.102.169.452.192.611.005.035 0 .227 0 .227h-1.994v-.088a.2.2 0 0 1 .137-.19z"/>
      <path fill="#858585" style="fill:var(--color6, #858585)" d="M26.908 29.088h-1.995V29a.2.2 0 0 1 .01-.064h1.987l-.002.152z"/>
      <path fill="#263238" style="fill:var(--color2, #263238)" d="M24.804 19.502s.192 1.112.369 2.044c.12.632.128 2.5.128 2.5l.613 3.857.756-.102s.009-2.374-.076-3.136c-.019-.17-.051-.673-.051-.673s.029-2.015.184-2.688c.111-.48.333-.984.064-1.968l-1.987.165z"/>
      <path fill="#fff" style="fill:var(--color1, #fff)" d="m25.787 27.731.044.283.937-.101-.006-.305-.974.122z"/>
      <path fill="#858585" style="fill:var(--color6, #858585)" d="m21.237 14.36-.207-.348s-.05-.568-.165-.678-.371-.436-.408-.372c-.058.102.155.285.155.285l.039.211s-.345-.248-.442-.248c0 0-.275-.326-.372-.326s.04.225.04.225-.093-.071-.111-.027c-.018.044.12.195.12.195s-.053.058.027.181c-.011.04-.011.082 0 .122s.033.076.064.104c.106.085.677.408.677.408l.192.452.391-.183z"/>
      <path fill="#fff" style="fill:var(--color1, #fff)" d="M23.371 14.272 22.052 15.3l-.904-1.231-.46.23s.723 1.998 1.27 1.998c.582 0 1.688-.934 1.688-.934s.07-.179-.275-1.091z"/>
      <path fill="#fff" style="fill:var(--color1, #fff)" d="m23.371 14.272.281 3.719v1.545s1.619.192 3.215-.041l-.055-1.59.162-3.545s-.741-.536-1.879-.536-1.724.448-1.724.448z"/>
      <path style="fill:var(--color5, #000)" opacity=".2" d="m26.867 19.495-.051-1.425c-.027.687-.785.429-.957.397-.184-.035-.395.571-.395.571s-.704.121-1.255.078c-.551-.043-.559-.546-.559-.546v.966s1.62.195 3.217-.041z"/>
      <path fill="#fff" style="fill:var(--color1, #fff)" d="M24.41 17.955a4.273 4.273 0 0 0 1.899-.684l-1.899.684zM24.128 17.974s.054 0 .15-.007l-.15.007zM24.676 14.451l-.28-.102-.267.259.196-.8.236-.186.12.076.538-.02.418.034.199-.061.212.213-.473.904-.198-.342-.438.054-.262-.028z"/>
      <path fill="#fff" style="fill:var(--color1, #fff)" opacity=".5" d="m24.676 14.451-.28-.102-.267.259.196-.8.236-.186.12.076.538-.02.418.034.199-.061.212.213-.473.904-.198-.342-.438.054-.262-.028z"/>
      <path fill="#858585" style="fill:var(--color6, #858585)" d="m25.607 13.861-.064-.978-.618.109-.128.46-.128.398-.061.006.168.914.892-.896-.061-.013z"/>
      <path fill="#263238" style="fill:var(--color2, #263238)" d="M24.087 12.95c0 .248.038.804.38.869.353.067.758-.335.904-.495a.43.43 0 0 0 .084-.137l.077-.205a.265.265 0 0 0 .146-.031h-1.59z"/>
      <path fill="#263238" style="fill:var(--color2, #263238)" d="M24.499 11.695s-.293-.223-.149-.398c.075-.091.172.029.172.029s-.052-.279.156-.32c.192-.036.184.184.184.184s.099-.189.273-.147c.138.033.085.229.085.229s.184-.229.375-.128c.165.086.029.294.029.294s.196-.069.305.041c.109.11 0 .256 0 .256s.216 0 .225.161c.01.161-.167.192-.167.192s.25.081.252.277c.002.196-.165.133-.165.133s.104.184.017.282c-.01.013-.022.024-.037.031s-.031.011-.047.011-.032-.004-.047-.011-.027-.018-.037-.031c0 0 .108.232-.029.3-.098.048-.156-.07-.156-.07s-.083.201-.182.078c-.1-.123-.595-1.069-.595-1.069l-.463-.325z"/>
      <path fill="#fff" style="fill:var(--color1, #fff)" d="m24.415 11.704-.184.384a.3.3 0 0 0-.029.128v.12l-.102.256a.28.28 0 0 0-.013.041c-.033.136-.188.869.192 1.018.335.132.808-.186.981-.317a.427.427 0 0 0 .108-.12l.115-.187a.244.244 0 0 0 .268-.095c.103-.148.222-.228.081-.361s-.272.08-.272.08l.019-.376-.164-.288-.008-.181s-.536-.059-.896-.256l-.096.152z"/>
      <path fill="#858585" style="fill:var(--color6, #858585)" d="m24.415 11.704-.184.384a.3.3 0 0 0-.029.128v.12l-.102.256a.28.28 0 0 0-.013.041c-.033.136-.188.869.192 1.018.335.132.808-.186.981-.317a.427.427 0 0 0 .108-.12l.115-.187a.244.244 0 0 0 .268-.095c.103-.148.222-.228.081-.361s-.272.08-.272.08l.019-.376-.164-.288-.008-.181s-.536-.059-.896-.256l-.096.152z"/>
      <path fill="#263238" style="fill:var(--color2, #263238)" d="M24.743 12.56c-.014.045-.043.077-.064.07s-.028-.049-.014-.095c.014-.045.043-.077.064-.07s.028.049.014.095zM24.316 12.428c-.014.046-.043.077-.064.07s-.028-.049-.014-.095c.014-.045.044-.077.064-.07s.028.049.014.094z"/>
      <path fill="#fff" style="fill:var(--color1, #fff)" d="m25.191 19.805-.033.198a.128.128 0 0 0 .104.144l2.052.337a.129.129 0 0 0 .144-.103l.032-.198-2.299-.378z"/>
      <path fill="#fff" style="fill:var(--color1, #fff)" d="m27.582 18.937-2.076-.341a.113.113 0 0 0-.13.093l-.206 1.254c-.01.062.032.12.093.13l2.076.341c.062.01.12-.032.13-.093l.206-1.254a.113.113 0 0 0-.093-.13z"/>
      <path fill="#fff" style="fill:var(--color1, #fff)" opacity=".5" d="m27.582 18.937-2.076-.341a.113.113 0 0 0-.13.093l-.206 1.254c-.01.062.032.12.093.13l2.076.341c.062.01.12-.032.13-.093l.206-1.254a.113.113 0 0 0-.093-.13z"/>
      <path fill="#858585" style="fill:var(--color6, #858585)" d="m26.781 19.171-.113.384-.384.275a4.336 4.336 0 0 1-.192.493.06.06 0 0 0 .001.058.062.062 0 0 0 .05.031c.053 0 .115-.025.149-.128 0 0 .015.202.14.079 0 0 .076.196.195.042 0 0 .276.041.32-.158s.109-.55.109-.55l.175-.412-.449-.114z"/>
      <path fill="#fff" style="fill:var(--color1, #fff)" d="M26.974 14.36s.96 2.667.942 3.057-.701 2.085-.701 2.085l-.527-.168.352-1.988-.316-1.382s-.072-1.013.25-1.604zM26.534 19.377a.265.265 0 0 1-.042-.084.146.146 0 0 0-.118.236c.023.03.055.049.092.055a.146.146 0 0 0 .168-.12.218.218 0 0 1-.1-.085zM7.804 13.747l.116.574-1.294.054.225-1.591.872.101.081.861z"/>
      <path fill="#263238" style="fill:var(--color2, #263238)" d="m8.384 12.876-1.082.32c.013.124.039.246.077.365.064.184.454.512.704.508s.278-.801.278-.801l.151-.084a.07.07 0 0 0 .034-.047c.002-.01.002-.02 0-.03s-.006-.019-.012-.027l-.15-.205z"/>
      <path fill="#263238" style="fill:var(--color2, #263238)" d="M7.864 11.724s.314.064.282-.277-.618-.133-.923-.094-1.291.406-.942.988c0 0-.205.328.534.877 0 0 .351-.165.544.076l.15-.293.384-.675-.03-.602z"/>
      <path fill="#263238" style="fill:var(--color2, #263238)" d="M7.841 11.673s.301.168.474-.042c0 0 .019.448-.474.042z"/>
      <path fill="#fff" style="fill:var(--color1, #fff)" d="M7.872 11.626s.448.472.433.795v.295l.237.266c.007.007.012.015.015.024a.067.067 0 0 1-.006.055.064.064 0 0 1-.02.02l-.138.095s.04.755-.196.782-.631-.256-.71-.422a2.346 2.346 0 0 1-.128-.473.357.357 0 0 1-.261-.304c-.028-.248.223-.241.287-.079l.052.133.163-.006s-.093-.234-.038-.303.271-.237.172-.398-.066-.434.139-.48z"/>
      <path fill="#263238" style="fill:var(--color2, #263238)" d="M8.171 12.718c0 .044-.017.081-.041.081s-.044-.035-.045-.079c-.001-.044.017-.081.041-.081s.044.033.045.079z"/>
      <path fill="#fff" style="fill:var(--color1, #fff)" d="m6.118 26.895-.187 1.608.556.086.307-1.59-.676-.104z"/>
      <path fill="#fff" style="fill:var(--color1, #fff)" d="M5.857 19.789s.022.932.351 1.587l.075 2.473-.38 3.985.844.081.768-4.168.256-3.776-1.915-.182z"/>
      <path style="fill:var(--color5, #000)" opacity=".2" d="m7.652 21.786-.07-.444-.32-1.396-.059-.03-1.344-.128s0 .153.03.379l.664.376c.016.236.069.469.158.688.008.019.011.04.008.061s-.01.04-.022.057c-.012.017-.029.03-.047.039s-.04.012-.06.011c-.068-.005-.128 0-.128.045 0 .104.5.438.5.438s.505 1.632.487 2.235l.068-.371.135-1.96z"/>
      <path fill="#fff" style="fill:var(--color1, #fff)" d="m7.816 27.001.061 1.618h.563l.06-1.618h-.684z"/>
      <path fill="#263238" style="fill:var(--color2, #263238)" d="M9.335 28.847a3.491 3.491 0 0 1-.54-.215c-.083-.052-.2-.221-.285-.269a.139.139 0 0 0-.114 0c-.041.033-.043.207-.043.207s-.072-.177-.125-.207c-.073-.041-.271-.053-.336 0-.108.088-.147.392-.168.529-.005.03 0 .197 0 .197h1.728v-.076a.173.173 0 0 0-.117-.165z"/>
      <path fill="#fff" style="fill:var(--color1, #fff)" d="m8.993 19.866-.138 3.738-.231 4.268h-.879s-.184-3.276-.138-4.224l-.461-2.192s-.484-.646-.369-1.43l2.218-.16z"/>
      <path fill="#fff" style="fill:var(--color1, #fff)" d="m7.666 27.555.029.513h.963l.075-.513H7.666zM5.833 27.51l-.02.513.959.091.124-.504-1.062-.101zM10.451 17.405l-1.331-.846 1.402-1.402 1.331.846-1.403 1.402z"/>
      <path fill="#fff" style="fill:var(--color1, #fff)" d="m10.527 17.116-1.07-.68 1.128-1.128 1.07.68-1.128 1.128z"/>
      <path fill="#858585" style="fill:var(--color6, #858585)" d="m11.062 15.375-.177.177c-.008.008-.015.018-.019.03s-.005.023-.004.035a.076.076 0 0 0 .036.058l.256.164a.149.149 0 0 0 .183-.02l.163-.164-.439-.28zM6.328 14.282l.231-.508s1.338-.15 1.695.969l-1.926-.461zM5.568 14.715s-.33 2.53-.243 3.427c.069.709.536 1.309.536 1.309l.692-.271-.352-1.038s.109-1.869.213-2.304l-.847-1.123z"/>
      <path fill="#858585" style="fill:var(--color6, #858585)" d="m5.661 19.327.195.234.8-.312-.104-.312-.892.39z"/>
      <path fill="#858585" style="fill:var(--color6, #858585)" d="M5.568 14.715s-.104 1.453.192 2.475 0 2.699 0 2.699 1.364.883 3.456.207c0 0-.259-4.966-.605-5.243s-2.3-1.332-3.043-.138z"/>
      <path style="fill:var(--color5, #000)" opacity=".2" d="M9.216 20.096s-.089-1.702-.232-3.169c-.303-.735-.797-1.713-.824-.339-.038 1.987 1.185 1.87.216 2.216a1.576 1.576 0 0 1-1.337-.104.079.079 0 0 0-.097.02c-.011.014-.018.032-.018.05s.006.036.017.05c.243.309.612.502.896.612.026.01.047.028.062.051s.021.051.018.078c-.003.027-.015.053-.034.073s-.044.033-.071.037c-.913.135-1.628-.35-1.956-.632-.038.489-.102.85-.102.85s1.37.883 3.462.207z"/>
      <path fill="#858585" style="fill:var(--color6, #858585)" d="M8.612 14.854a.815.815 0 0 1 .468.631c.069.476.512 1.939.512 1.939l.147-.095a.609.609 0 0 1 .353.656s-.36.704-.753.572c-.404-.137-.63-.467-.832-1.007-.107-.288-.415-1.156-.415-1.156z"/>
      <path fill="#fff" style="fill:var(--color1, #fff)" d="m9.835 17.288.461-.329a.59.59 0 0 1 .409-.433s.213-.352.334-.311-.144.184-.167.369l.098.131s.32-.056.398-.16c0 0-.017.22-.144.256 0 0 0 .167-.086.161l-.635.179-.369.689-.3-.553z"/>
      <path fill="#858585" style="fill:var(--color6, #858585)" d="M9.636 17.299s.481.363.435.802l.173-.332s-.006-.28-.404-.576l-.205.106z"/>
      <path fill="#fff" style="fill:var(--color1, #fff)" d="M7.724 29.088h1.728v-.076a.171.171 0 0 0-.009-.055H7.721c0 .058.003.131.003.131z"/>
      <path fill="#263238" style="fill:var(--color2, #263238)" d="M7.36 28.847a3.491 3.491 0 0 1-.54-.215c-.083-.052-.2-.221-.285-.269a.142.142 0 0 0-.114 0c-.041.033-.043.207-.043.207s-.072-.177-.125-.207c-.073-.041-.271-.053-.336 0-.108.088-.147.392-.168.529-.005.03 0 .197 0 .197h1.728v-.076a.173.173 0 0 0-.117-.165z"/>
      <path fill="#fff" style="fill:var(--color1, #fff)" d="M5.748 29.088h1.728v-.076a.171.171 0 0 0-.009-.055H5.745c0 .058.003.131.003.131zM10.456 15.586l.046.229h.408l-.332-.077.016-.156-.138.004z"/>
    </symbol>
    <symbol id="icon-Typewriter-bro-1" viewBox="0 0 47 32">
      <path fill="#fff" style="fill:var(--color1, #fff)" d="M36.958 3.925H19.302a.621.621 0 0 0-.622.621v15.857c0 .343.279.62.622.62h17.656a.621.621 0 0 0 .622-.62V4.546a.622.622 0 0 0-.622-.621z"/>
      <path style="fill:var(--color5, #000)" opacity=".2" d="M37.581 13.291v7.13c0 .16-.063.313-.177.426s-.267.176-.427.177H19.284a.6.6 0 0 1-.604-.602V19.01h.038v.952a.688.688 0 0 0 .692.688h17.093a.698.698 0 0 0 .488-.201.701.701 0 0 0 .203-.487V14.35a.48.48 0 0 0-.481-.479H18.681v-.578h18.901z"/>
      <path fill="#263238" style="fill:var(--color2, #263238)" d="M35.935 15.321v-.817a.308.308 0 0 0-.089-.214.305.305 0 0 0-.214-.088H20.629c-.08 0-.157.032-.214.088s-.089.133-.089.214v.817a.303.303 0 0 1-.303.302.303.303 0 0 0-.304.303v1.612a1.407 1.407 0 0 0 1.406 1.401c.06 0 .117.024.16.066s.066.099.066.159v.483a.672.672 0 0 0 .674.672h12.212a.677.677 0 0 0 .674-.672v-.483a.225.225 0 0 1 .226-.225 1.4 1.4 0 0 0 .994-.411 1.39 1.39 0 0 0 .412-.991v-1.612a.303.303 0 0 0-.303-.303c-.081 0-.158-.032-.215-.088s-.089-.133-.089-.214z"/>
      <path fill="#fff" style="fill:var(--color1, #fff)" d="M21.475 14.665h-.525c-.064 0-.126.025-.171.071s-.071.107-.071.171v.134c0 .278.226.631.505.631s.505-.353.505-.631v-.134c0-.064-.026-.125-.071-.171s-.107-.071-.172-.071zM22.73 14.665h-.525a.243.243 0 0 0-.243.242v.134c0 .278.226.631.505.631s.505-.353.505-.631v-.134a.24.24 0 0 0-.242-.242zM23.991 14.665h-.525c-.064 0-.126.025-.171.071s-.071.107-.071.171v.134c0 .278.226.631.504.631s.505-.353.505-.631v-.134a.24.24 0 0 0-.242-.242zM25.248 14.665h-.525c-.064 0-.126.025-.171.071s-.071.107-.071.171v.134c0 .278.226.631.505.631s.504-.353.504-.631v-.134a.24.24 0 0 0-.242-.24zM26.506 14.665h-.525c-.064 0-.126.025-.171.071s-.071.107-.071.171v.134c0 .278.226.631.505.631s.505-.353.505-.631v-.134c0-.064-.026-.125-.071-.171s-.107-.071-.172-.071zM27.764 14.665h-.525a.243.243 0 0 0-.243.242v.134c0 .278.226.631.505.631s.505-.353.505-.631v-.134c0-.064-.026-.125-.071-.171s-.107-.071-.171-.071zM29.022 14.665h-.525c-.064 0-.126.025-.171.071s-.071.107-.071.171v.134c0 .278.226.631.504.631s.505-.353.505-.631v-.134a.24.24 0 0 0-.242-.242zM30.279 14.665h-.525c-.064 0-.126.025-.171.071s-.071.107-.071.171v.134c0 .278.226.631.505.631s.504-.353.504-.631v-.134a.24.24 0 0 0-.242-.242zM31.537 14.665h-.522a.248.248 0 0 0-.172.07.242.242 0 0 0-.07.17v.134c0 .278.226.631.505.631s.505-.353.505-.631v-.134a.25.25 0 0 0-.072-.172c-.023-.022-.05-.04-.08-.052s-.062-.018-.094-.017zM32.795 14.665h-.525a.243.243 0 0 0-.243.242v.134c0 .278.226.631.505.631s.505-.353.505-.631v-.134c0-.064-.026-.125-.071-.171s-.107-.071-.171-.071zM34.053 14.665h-.525c-.064 0-.126.025-.171.071s-.071.107-.071.171v.134c0 .278.226.631.504.631s.505-.353.505-.631v-.134c0-.064-.026-.125-.071-.171s-.107-.071-.171-.071zM35.31 14.665h-.525c-.064 0-.126.025-.171.071s-.071.107-.071.171v.134c0 .277.224.63.508.63s.504-.353.504-.631v-.134a.235.235 0 0 0-.072-.171c-.023-.022-.05-.04-.079-.052s-.061-.018-.093-.017zM21.475 17.322h-.525c-.064 0-.126.025-.171.071s-.071.107-.071.171v.134c0 .278.226.631.505.631s.505-.353.505-.631v-.134c0-.064-.026-.125-.071-.171s-.107-.071-.172-.071zM22.73 17.322h-.525a.243.243 0 0 0-.243.242v.134c0 .278.226.631.505.631s.505-.353.505-.631v-.134a.24.24 0 0 0-.242-.242zM23.991 17.322h-.525c-.064 0-.126.025-.171.071s-.071.107-.071.171v.134c0 .278.226.631.504.631s.505-.353.505-.631v-.134a.24.24 0 0 0-.242-.242zM25.248 17.322h-.525c-.064 0-.126.025-.171.071s-.071.107-.071.171v.134c0 .278.226.631.505.631s.504-.353.504-.631v-.134a.24.24 0 0 0-.242-.24zM26.506 17.322h-.525c-.064 0-.126.025-.171.071s-.071.107-.071.171v.134c0 .278.226.631.505.631s.505-.353.505-.631v-.134c0-.064-.026-.125-.071-.171s-.107-.071-.172-.071zM27.764 17.322h-.525a.243.243 0 0 0-.243.242v.134c0 .278.226.631.505.631s.505-.353.505-.631v-.134c0-.064-.026-.125-.071-.171s-.107-.071-.171-.071zM29.022 17.322h-.525c-.064 0-.126.025-.171.071s-.071.107-.071.171v.134c0 .278.226.631.504.631s.505-.353.505-.631v-.134a.24.24 0 0 0-.242-.242zM30.279 17.322h-.525c-.064 0-.126.025-.171.071s-.071.107-.071.171v.134c0 .278.226.631.505.631s.504-.353.504-.631v-.134a.24.24 0 0 0-.242-.242zM31.537 17.322h-.522a.248.248 0 0 0-.172.07.242.242 0 0 0-.07.17v.134c0 .278.226.631.505.631s.505-.353.505-.631v-.134a.245.245 0 0 0-.152-.224.253.253 0 0 0-.094-.018zM32.795 17.322h-.525a.243.243 0 0 0-.243.242v.134c0 .278.226.631.505.631s.505-.353.505-.631v-.134c0-.064-.026-.125-.071-.171s-.107-.071-.171-.071zM34.053 17.322h-.525c-.064 0-.126.025-.171.071s-.071.107-.071.171v.134c0 .278.226.631.504.631s.505-.353.505-.631v-.134c0-.064-.026-.125-.071-.171s-.107-.071-.171-.071zM35.31 17.322h-.525c-.064 0-.126.025-.171.071s-.071.107-.071.171v.134c0 .278.226.631.505.631s.504-.353.504-.631v-.134a.24.24 0 0 0-.242-.242zM20.846 16.036h-.523c-.064 0-.126.025-.171.071s-.071.107-.071.171v.134c0 .277.226.631.505.631s.504-.353.504-.631v-.134a.25.25 0 0 0-.072-.172.248.248 0 0 0-.172-.07zM22.104 16.036h-.525c-.064 0-.126.025-.171.071s-.071.107-.071.171v.134c0 .277.226.631.505.631s.505-.353.505-.631v-.134a.243.243 0 0 0-.243-.242zM23.362 16.036h-.525a.243.243 0 0 0-.243.242v.134c0 .277.227.631.505.631s.505-.353.505-.631v-.134a.24.24 0 0 0-.242-.242zM24.62 16.036h-.525c-.064 0-.126.025-.171.071s-.071.107-.071.171v.134c0 .277.226.631.504.631s.505-.353.505-.631v-.134a.232.232 0 0 0-.149-.223.248.248 0 0 0-.093-.018zM25.877 16.036h-.527c-.064 0-.126.025-.171.071s-.071.107-.071.171v.134c0 .277.226.631.505.631s.504-.353.504-.631v-.134a.24.24 0 0 0-.24-.241zM27.135 16.036h-.525c-.064 0-.126.025-.171.071s-.071.107-.071.171v.134c0 .277.226.631.505.631s.505-.353.505-.631v-.134a.243.243 0 0 0-.243-.242zM28.395 16.036h-.525c-.064 0-.126.025-.171.071s-.071.107-.071.171v.134c0 .277.227.631.505.631s.505-.353.505-.631v-.134a.24.24 0 0 0-.242-.242zM29.651 16.036h-.525c-.064 0-.126.025-.171.071s-.071.107-.071.171v.134c0 .277.226.631.504.631s.505-.353.505-.631v-.134c0-.064-.026-.125-.071-.171s-.107-.071-.171-.071zM30.908 16.036h-.525c-.064 0-.126.025-.171.071s-.071.107-.071.171v.134c0 .277.226.631.505.631s.504-.353.504-.631v-.134c0-.064-.026-.125-.071-.171s-.107-.071-.171-.071zM32.166 16.036h-.525c-.064 0-.126.025-.171.071s-.071.107-.071.171v.134c0 .277.226.631.505.631s.505-.353.505-.631v-.134a.243.243 0 0 0-.242-.242zM33.423 16.036h-.525a.243.243 0 0 0-.243.242v.134c0 .277.227.631.505.631s.505-.353.505-.631v-.134c0-.064-.026-.125-.071-.171s-.107-.071-.171-.071zM34.682 16.036h-.525a.244.244 0 0 0-.239.242v.134c0 .277.226.631.504.631s.505-.353.505-.631v-.134c0-.032-.006-.064-.019-.093s-.031-.056-.053-.079a.235.235 0 0 0-.174-.069zM35.939 16.036h-.525c-.064 0-.126.025-.171.071s-.071.107-.071.171v.134c0 .277.226.631.505.631s.504-.353.504-.631v-.134c0-.064-.026-.125-.071-.171s-.107-.071-.171-.071zM32.934 18.66h-9.607a.226.226 0 0 0-.227.227v.688c0 .125.102.227.227.227h9.607a.226.226 0 0 0 .227-.227v-.688a.227.227 0 0 0-.227-.227zM34.221 18.727h-.525c-.064 0-.126.025-.171.071s-.071.107-.071.171v.134c0 .278.226.631.505.631s.504-.353.504-.631v-.134c0-.064-.026-.125-.071-.171s-.107-.071-.171-.071zM22.565 18.727h-.525c-.064 0-.126.025-.171.071s-.071.107-.071.171v.134c0 .278.226.631.505.631s.505-.353.505-.631v-.134c0-.064-.026-.125-.071-.171s-.107-.071-.172-.071z"/>
      <path style="fill:var(--color5, #000)" opacity=".2" d="M21.504 15.048a.39.39 0 0 1 .076.007V14.906c0-.028-.011-.054-.031-.074s-.046-.031-.074-.031h-.525c-.028 0-.054.011-.074.031s-.031.046-.031.074v.134c0 .193.142.435.309.484-.052-.214.064-.476.35-.476zM22.79 15.012a.384.384 0 0 1 .048 0v-.109c0-.028-.011-.054-.031-.074s-.046-.031-.074-.031h-.525c-.028 0-.055.011-.074.031s-.031.046-.031.074v.134c0 .212.168.476.354.494-.086-.219.027-.52.333-.52zM24.085 14.994h.011v-.088c0-.028-.011-.054-.031-.074s-.046-.031-.074-.031h-.525c-.028 0-.055.011-.074.031s-.031.046-.031.074v.134c0 .215.178.494.367.494a.13.13 0 0 0 .028 0c-.095-.223.015-.54.329-.54zM25.263 14.958a.374.374 0 0 1 .088.007v-.061c0-.028-.011-.054-.031-.074s-.046-.031-.074-.031h-.525c-.028 0-.055.011-.074.031s-.031.046-.031.074v.134c0 .202.156.459.331.494-.12-.222-.016-.574.315-.574zM26.585 14.957h.027v-.053c0-.028-.011-.054-.031-.074s-.046-.031-.074-.031h-.525c-.028 0-.054.011-.074.031s-.031.046-.031.074v.134c0 .215.179.494.367.494a.14.14 0 0 0 .029 0c-.124-.222-.02-.575.311-.575zM27.853 14.965h.016v-.061c0-.028-.011-.054-.031-.074s-.046-.031-.074-.031h-.525c-.028 0-.055.011-.074.031s-.031.046-.031.074v.134c0 .215.178.494.367.494a.205.205 0 0 0 .035 0c-.116-.222-.011-.567.317-.567zM29.066 14.958c.02 0 .04.002.06.004v-.056c0-.028-.011-.054-.031-.074s-.046-.031-.074-.031h-.525c-.028 0-.054.011-.074.031s-.031.046-.031.074v.134c0 .212.176.49.363.494-.125-.222-.022-.577.311-.577zM30.384 14.976v-.071c0-.028-.011-.054-.031-.074s-.046-.031-.074-.031h-.525c-.028 0-.054.011-.074.031s-.031.046-.031.074v.134c0 .215.178.494.367.494a.177.177 0 0 0 .056-.009c-.102-.217.002-.539.311-.549zM31.539 14.948c.035 0 .07.004.103.013v-.056a.105.105 0 0 0-.105-.105h-.522c-.028 0-.054.011-.074.031s-.031.046-.031.074v.134c0 .199.151.45.324.489-.132-.221-.03-.58.305-.58zM32.825 14.948a.38.38 0 0 1 .075.007v-.049c0-.028-.011-.054-.031-.074s-.046-.031-.074-.031h-.525c-.028 0-.055.011-.074.031s-.031.046-.031.074v.134c0 .212.17.481.354.494-.133-.222-.031-.586.306-.586zM34.102 14.984c.018 0 .037.002.055.004v-.083c0-.028-.011-.054-.031-.074s-.046-.031-.074-.031h-.525c-.014 0-.027.003-.04.008s-.024.013-.034.023c-.01.01-.017.021-.023.034s-.008.026-.008.04v.134c0 .212.17.48.354.494-.103-.223.006-.55.325-.55zM35.415 14.968v-.062c0-.028-.011-.054-.031-.074s-.046-.031-.074-.031h-.525c-.028 0-.054.011-.074.031s-.031.046-.031.074v.134c0 .215.178.494.367.494a.197.197 0 0 0 .079-.017c-.101-.213-.006-.525.288-.549zM21.54 17.577a.267.267 0 0 1 .04 0v-.015c0-.028-.011-.054-.031-.074s-.046-.031-.074-.031h-.525c-.028 0-.054.011-.074.031s-.031.046-.031.074v.134c0 .215.178.494.367.494.013 0 .026-.002.039-.004-.159-.215-.062-.609.288-.609zM22.772 17.577c.022 0 .044.002.066.006v-.018c0-.028-.011-.054-.031-.074s-.046-.031-.074-.031h-.525c-.028 0-.055.011-.074.031s-.031.046-.031.074v.134c0 .215.178.494.367.494h.016c-.162-.217-.067-.616.286-.616zM24.022 17.594c.024 0 .047.002.071.006v-.037c0-.014-.003-.027-.008-.04s-.013-.024-.023-.034-.021-.017-.034-.023a.11.11 0 0 0-.04-.008h-.525c-.028 0-.055.011-.074.031s-.031.046-.031.074v.134c0 .212.175.489.363.494-.141-.22-.042-.597.301-.597zM25.299 17.603l.054.003v-.044c0-.014-.003-.027-.008-.04s-.013-.024-.023-.034-.021-.017-.034-.023a.11.11 0 0 0-.04-.008h-.525c-.014 0-.027.003-.04.008s-.024.013-.034.023c-.01.01-.017.021-.023.034s-.008.026-.008.04v.134c0 .215.178.494.367.494h.009c-.136-.221-.035-.588.304-.588zM26.531 17.577c.027 0 .054.003.081.008v-.02c0-.028-.011-.054-.031-.074s-.046-.031-.074-.031h-.525c-.028 0-.054.011-.074.031s-.031.046-.031.074v.134c0 .215.179.494.367.494-.161-.216-.067-.616.287-.616zM27.807 17.585c.021 0 .041.002.062.005v-.027c0-.028-.011-.054-.031-.074s-.046-.031-.074-.031h-.525c-.028 0-.055.011-.074.031s-.031.046-.031.074v.134c0 .215.178.494.367.494h.013c-.153-.219-.055-.606.292-.606zM29.112 17.612h.015v-.049c0-.028-.011-.054-.031-.074s-.046-.031-.074-.031h-.525c-.028 0-.054.011-.074.031s-.031.046-.031.074v.134c0 .215.178.494.367.494a.192.192 0 0 0 .041-.005c-.122-.22-.021-.574.311-.574zM30.378 17.585h.004v-.022c0-.014-.003-.027-.008-.04s-.013-.024-.023-.034c-.01-.01-.021-.017-.034-.023s-.026-.008-.04-.008h-.523c-.014 0-.027.003-.04.008s-.024.013-.034.023c-.01.01-.017.021-.023.034s-.008.026-.008.04v.134c0 .215.178.494.367.494a.2.2 0 0 0 .064-.011c-.144-.219-.044-.595.297-.595zM31.602 17.558h.04a.104.104 0 0 0-.105-.1h-.522c-.028 0-.054.011-.074.031s-.031.046-.031.074v.134c0 .215.178.494.367.494a.18.18 0 0 0 .051-.008c-.178-.21-.086-.624.273-.624zM32.898 17.577v-.013c0-.028-.011-.054-.031-.074s-.046-.031-.074-.031h-.525c-.028 0-.055.011-.074.031s-.031.046-.031.074v.134c0 .215.178.494.367.494a.217.217 0 0 0 .071-.013c-.148-.219-.05-.603.297-.603zM34.131 17.577h.028v-.014c0-.014-.003-.027-.008-.04s-.013-.024-.023-.034c-.01-.01-.021-.017-.034-.023s-.026-.008-.04-.008h-.525c-.028 0-.054.011-.074.031s-.031.046-.031.074v.134c0 .215.178.494.367.494a.215.215 0 0 0 .05-.007c-.158-.216-.061-.607.29-.607zM35.37 17.63h.045v-.071c0-.028-.011-.054-.031-.074s-.046-.031-.074-.031h-.525c-.028 0-.054.011-.074.031s-.031.046-.031.074v.134c0 .215.178.494.367.494-.11-.219-.004-.558.321-.558zM20.943 16.312h.009v-.035a.105.105 0 0 0-.105-.105h-.523c-.028 0-.054.011-.074.031s-.031.046-.031.074v.134c0 .215.178.494.367.494a.17.17 0 0 0 .054-.009c-.136-.22-.033-.585.303-.585zM22.174 16.312h.035v-.036a.105.105 0 0 0-.105-.105h-.525c-.028 0-.054.011-.074.031s-.031.046-.031.074v.134c0 .215.178.494.367.494a.16.16 0 0 0 .031 0c-.14-.221-.039-.592.301-.592zM23.46 16.312h.006v-.035c0-.028-.011-.054-.031-.074s-.046-.031-.074-.031h-.525c-.014 0-.028.002-.041.008s-.025.013-.035.023c-.01.01-.018.021-.023.034s-.008.026-.008.04v.134c0 .215.178.494.367.494a.177.177 0 0 0 .056-.009c-.133-.22-.031-.584.307-.584zM24.692 16.306h.032v-.027c0-.028-.011-.054-.031-.074s-.046-.031-.074-.031h-.525c-.028 0-.054.011-.074.031s-.031.046-.031.074v.134c0 .215.178.494.367.494a.233.233 0 0 0 .038-.004c-.147-.22-.047-.597.297-.597zM25.917 16.312c.023 0 .045.002.067.006v-.04c0-.028-.011-.054-.031-.074s-.046-.031-.074-.031h-.529c-.028 0-.054.011-.074.031s-.031.046-.031.074v.134c0 .215.178.494.367.494-.14-.22-.04-.594.304-.594zM27.183 16.267l.057.003a.105.105 0 0 0-.105-.097h-.525c-.028 0-.054.011-.074.031s-.031.046-.031.074v.134c0 .215.179.494.367.494a.175.175 0 0 0 .04-.005c-.184-.21-.094-.634.27-.634zM28.45 16.321h.047v-.046c0-.028-.011-.054-.031-.074s-.046-.031-.074-.031h-.525c-.028 0-.055.011-.074.031s-.031.046-.031.074v.134c0 .215.179.494.367.494h.014c-.132-.219-.033-.582.306-.582zM29.755 16.278c0-.028-.011-.054-.031-.074s-.046-.031-.074-.031h-.525c-.014 0-.027.003-.04.008s-.024.013-.034.023c-.01.01-.017.021-.023.034s-.008.026-.008.04v.134c0 .215.178.494.367.494a.228.228 0 0 0 .108-.03c-.143-.21-.057-.57.26-.599zM31.015 16.306v-.027c0-.028-.011-.054-.031-.074s-.046-.031-.074-.031h-.525c-.028 0-.054.011-.074.031s-.031.046-.031.074v.134c0 .215.178.494.367.494.03 0 .06-.008.088-.02-.13-.215-.037-.563.279-.581zM32.227 16.285h.044v-.009c0-.028-.011-.054-.031-.074s-.046-.031-.074-.031h-.525c-.028 0-.054.011-.074.031s-.031.046-.031.074v.134c0 .215.178.494.367.494a.183.183 0 0 0 .04-.005c-.164-.212-.07-.614.284-.614zM33.529 16.331v-.053c0-.028-.011-.054-.031-.074s-.046-.031-.074-.031h-.525c-.028 0-.055.011-.074.031s-.031.046-.031.074v.134c0 .215.178.494.367.494a.194.194 0 0 0 .063-.011c-.115-.219-.014-.556.304-.565zM34.727 16.294c.02 0 .04.002.059.004v-.02c0-.028-.011-.054-.031-.074s-.046-.031-.074-.031h-.525c-.014 0-.027.003-.04.008s-.024.013-.034.023-.017.021-.023.034a.11.11 0 0 0-.008.04v.134c0 .215.178.494.367.494h.02c-.159-.218-.062-.612.288-.612zM35.995 16.348a.4.4 0 0 1 .049 0v-.071c0-.028-.011-.054-.031-.074s-.046-.031-.074-.031h-.525c-.028 0-.054.011-.074.031s-.031.046-.031.074v.134c0 .212.176.494.365.494-.111-.222-.004-.558.32-.558zM33.024 19.579v-.696a.085.085 0 0 0-.086-.085h-9.616a.086.086 0 0 0-.086.085v.696c0 .047.038.085.086.085h9.616a.086.086 0 0 0 .086-.085zM34.325 19.039v-.071c0-.014-.003-.027-.008-.04s-.013-.024-.023-.034-.021-.017-.034-.023a.11.11 0 0 0-.04-.008h-.525c-.014 0-.027.003-.04.008s-.024.013-.034.023c-.01.01-.017.021-.023.034s-.008.026-.008.04v.134c0 .215.178.494.367.494a.242.242 0 0 0 .047-.006c-.105-.22.002-.549.32-.551zM22.609 18.993c.021 0 .041.002.062.005v-.03a.105.105 0 0 0-.105-.105h-.525c-.028 0-.054.011-.074.031s-.031.046-.031.074v.134c0 .215.178.494.367.494h.012c-.151-.219-.052-.604.294-.604zM19.452 4.269h17.357a.45.45 0 0 1 .45.448V8.67H19.003V4.717a.452.452 0 0 1 .45-.448z"/>
      <path fill="#fff" style="fill:var(--color1, #fff)" d="M35.39 5.015H20.874a16.389 16.389 0 0 0-.637-2.954H36.03a15.703 15.703 0 0 0-.64 2.954z"/>
      <path style="fill:var(--color5, #000)" opacity=".2" d="M35.533 4.063c-.105.575-.142.952-.142.952H20.875s-.037-.371-.145-.952h14.803z"/>
      <path fill="#263238" style="fill:var(--color2, #263238)" d="M35.192 7.503h-14.24v5.841h14.24V7.503z"/>
      <path fill="#fff" style="fill:var(--color1, #fff)" opacity=".16" d="m27.717 12.827.075.004.283-4.377-.358 4.373zM27.475 12.809l.075.006c.164-1.447.327-2.901.491-4.361-.188 1.461-.377 2.912-.566 4.354zM27.239 12.782c.025 0 .05.006.075.008l.701-4.337c-.26 1.461-.518 2.904-.776 4.328zM27 12.746l.076.012c.301-1.412.605-2.847.911-4.306-.33 1.46-.659 2.892-.986 4.294zM26.762 12.701l.076.015c.368-1.385.741-2.806 1.119-4.264a404.997 404.997 0 0 1-1.196 4.248zM26.526 12.648l.076.019c.434-1.354.88-2.758 1.328-4.215a305.764 305.764 0 0 1-1.404 4.195zM26.29 12.584l.077.023a246.225 246.225 0 0 0 1.534-4.156 200.847 200.847 0 0 1-1.611 4.133zM26.058 12.512l.077.025c.56-1.271 1.148-2.634 1.74-4.087a147.049 147.049 0 0 1-1.817 4.062zM25.823 12.43l.078.028c.62-1.223 1.279-2.558 1.944-4.009a99.326 99.326 0 0 1-2.022 3.981zM25.594 12.336l.078.033a79.948 79.948 0 0 0 2.145-3.922 73.072 73.072 0 0 1-2.223 3.889zM25.367 12.232l.078.037a61.332 61.332 0 0 0 2.344-3.823 54.767 54.767 0 0 1-2.422 3.786zM25.143 12.116l.078.042a47.407 47.407 0 0 0 2.539-3.715 42.586 42.586 0 0 1-2.617 3.672z"/>
      <path fill="#fff" style="fill:var(--color1, #fff)" opacity=".16" d="m24.926 11.989.079.047a36.725 36.725 0 0 0 2.73-3.593 33.545 33.545 0 0 1-2.809 3.547z"/>
      <path fill="#fff" style="fill:var(--color1, #fff)" opacity=".16" d="m24.708 11.849.077.053a29.452 29.452 0 0 0 2.918-3.459 26.846 26.846 0 0 1-2.995 3.406z"/>
      <path fill="#fff" style="fill:var(--color1, #fff)" opacity=".16" d="M27.675 8.438c-1.139 1.422-2.254 2.508-3.174 3.257l.076.059a23.781 23.781 0 0 0 3.099-3.316z"/>
      <path fill="#fff" style="fill:var(--color1, #fff)" opacity=".16" d="M27.647 8.436c-1.214 1.412-2.4 2.444-3.348 3.093l.075.064c.935-.69 2.091-1.742 3.273-3.158z"/>
      <path fill="#fff" style="fill:var(--color1, #fff)" opacity=".16" d="M27.616 8.434c-1.287 1.401-2.54 2.373-3.509 2.915l.071.071c.96-.586 2.186-1.581 3.438-2.985z"/>
      <path fill="#fff" style="fill:var(--color1, #fff)" opacity=".16" d="M27.59 8.431c-1.357 1.387-2.675 2.294-3.66 2.725l.071.077c.975-.478 2.264-1.41 3.589-2.802z"/>
      <path fill="#fff" style="fill:var(--color1, #fff)" opacity=".16" d="m23.767 10.95.063.084c.988-.364 2.337-1.231 3.732-2.605-1.424 1.367-2.802 2.207-3.795 2.521z"/>
      <path fill="#fff" style="fill:var(--color1, #fff)" opacity=".16" d="M23.623 10.735c.018.03.038.059.057.089.991-.248 2.399-1.047 3.855-2.4-1.484 1.346-2.917 2.114-3.912 2.311z"/>
      <path fill="#fff" style="fill:var(--color1, #fff)" opacity=".16" d="m23.499 10.517.048.092c.991-.134 2.447-.862 3.958-2.185-1.536 1.31-3.015 2.008-4.006 2.092z"/>
      <path fill="#fff" style="fill:var(--color1, #fff)" opacity=".16" d="m23.399 10.294.04.094c.986-.024 2.478-.68 4.036-1.968-1.575 1.275-3.091 1.899-4.076 1.874zM27.957 12.837h.074c.023-1.459.046-2.92.071-4.383-.05 1.462-.098 2.923-.145 4.383zM28.196 12.838h.075l-.142-4.383.067 4.383zM28.436 12.832h.075a7973.54 7973.54 0 0 1-.354-4.377l.279 4.377zM28.678 12.817l.075-.006c-.189-1.443-.378-2.896-.566-4.357.162 1.461.326 2.916.491 4.363zM28.914 12.795l.075-.009-.779-4.332.704 4.341zM29.153 12.763l.076-.011c-.326-1.405-.655-2.837-.988-4.298.306 1.461.61 2.897.912 4.309zM29.391 12.723l.076-.014a611.146 611.146 0 0 1-1.197-4.255c.377 1.46.751 2.883 1.122 4.27zM29.627 12.673l.077-.018a293.716 293.716 0 0 1-1.407-4.203 314.34 314.34 0 0 0 1.33 4.221zM29.864 12.615l.076-.022a192.196 192.196 0 0 1-1.614-4.143c.52 1.459 1.039 2.843 1.538 4.164zM30.098 12.547l.078-.025a125.216 125.216 0 0 1-1.822-4.071 160.834 160.834 0 0 0 1.744 4.097zM30.331 12.468l.078-.029a97.814 97.814 0 0 1-2.027-3.991 110.97 110.97 0 0 0 1.949 4.02zM30.562 12.38c.026-.011.053-.021.079-.033a72.675 72.675 0 0 1-2.23-3.9 80.866 80.866 0 0 0 2.151 3.933zM30.791 12.282l.079-.037a54.761 54.761 0 0 1-2.43-3.798 61.118 61.118 0 0 0 2.352 3.835zM31.015 12.171l.078-.042a42.74 42.74 0 0 1-2.627-3.685 48.322 48.322 0 0 0 2.549 3.727zM31.237 12.049l.079-.047a33.678 33.678 0 0 1-2.821-3.56 36.904 36.904 0 0 0 2.742 3.607z"/>
      <path fill="#fff" style="fill:var(--color1, #fff)" opacity=".16" d="M28.524 8.44a29.365 29.365 0 0 0 2.931 3.475l.079-.053a26.881 26.881 0 0 1-3.009-3.422z"/>
      <path fill="#fff" style="fill:var(--color1, #fff)" opacity=".16" d="M28.552 8.438a23.657 23.657 0 0 0 3.116 3.329l.076-.059c-.923-.75-2.046-1.84-3.192-3.271z"/>
      <path fill="#fff" style="fill:var(--color1, #fff)" opacity=".16" d="M28.581 8.436c1.19 1.424 2.352 2.48 3.29 3.17.026-.021.052-.042.076-.064-.952-.648-2.145-1.683-3.367-3.106z"/>
      <path fill="#fff" style="fill:var(--color1, #fff)" opacity=".16" d="M28.608 8.434c1.264 1.412 2.496 2.414 3.459 2.999.025-.023.048-.048.071-.071-.97-.541-2.233-1.516-3.53-2.928z"/>
      <path fill="#fff" style="fill:var(--color1, #fff)" opacity=".16" d="M28.637 8.431c1.336 1.402 2.635 2.339 3.611 2.813l.071-.078c-.985-.426-2.314-1.336-3.682-2.736z"/>
      <path fill="#fff" style="fill:var(--color1, #fff)" opacity=".16" d="m32.423 11.044.064-.085c-.995-.307-2.386-1.149-3.824-2.529 1.408 1.386 2.77 2.256 3.76 2.615z"/>
      <path fill="#fff" style="fill:var(--color1, #fff)" opacity=".16" d="m32.577 10.831.058-.09c-.996-.187-2.442-.958-3.942-2.315 1.472 1.365 2.888 2.165 3.884 2.405z"/>
      <path fill="#fff" style="fill:var(--color1, #fff)" opacity=".16" d="m32.715 10.612.05-.094c-.991-.071-2.486-.769-4.036-2.095 1.521 1.337 2.995 2.066 3.987 2.188z"/>
      <path fill="#fff" style="fill:var(--color1, #fff)" opacity=".16" d="M28.749 8.42c1.575 1.303 3.087 1.959 4.071 1.969l.041-.095c-.983.04-2.515-.585-4.113-1.874z"/>
      <path style="fill:var(--color5, #000)" opacity=".2" d="M26.058 8.56c-.268.686.022 2.683 1.959 2.683s2.64-1.403 2.561-2.27l2.585-.415s.792 2.183-.89 3.71-7.514 1.428-8.747.268c-1.233-1.161-.549-3.453-.549-3.453l3.081-.522z"/>
      <path fill="#999" style="fill:var(--color7, #999)" d="M37.405 5.599v-.481c0-.018.006-.035.016-.05s.025-.025.043-.03l.354-.11v-.481a.217.217 0 0 1 .218-.218h.425a.082.082 0 0 1 .083.077v.155a.08.08 0 0 1-.08.081h-.54v.471a.083.083 0 0 1-.04.07l-.302.182V5.6l-.176-.001z"/>
      <path fill="#263238" style="fill:var(--color2, #263238)" d="M37.871 5.599h-.466v1.389h.466V5.599z"/>
      <path fill="#757575" style="fill:var(--color8, #757575)" d="M38.454 5.481h-.583v1.625h.583V5.481z"/>
      <path style="fill:var(--color5, #000)" opacity=".2" d="M38.452 6.471h-.581v.635h.581v-.635z"/>
      <path fill="#263238" style="fill:var(--color2, #263238)" d="M18.39 6.987h.466V5.598h-.466v1.389z"/>
      <path fill="#757575" style="fill:var(--color8, #757575)" d="M17.807 7.105h.583V5.48h-.583v1.625z"/>
      <path style="fill:var(--color5, #000)" opacity=".2" d="M18.391 6.471h-.583v.62h.583v-.62z"/>
      <path fill="#fff" style="fill:var(--color1, #fff)" d="M18.786 6.376a.562.562 0 0 0-.167-.635l-.343-.282a.209.209 0 0 0-.302.037l-1.359 1.869a.202.202 0 0 0-.04.121v2.007c0 .027.005.054.016.078s.026.047.045.066a.2.2 0 0 0 .146.059.206.206 0 0 0 .204-.204v-1.63c0-.04.013-.079.036-.112l1.016-1.412a.11.11 0 0 1 .121-.042.131.131 0 0 1 .04.022l.187.158a.253.253 0 0 0 .399-.099z"/>
      <path fill="#999" style="fill:var(--color7, #999)" d="M18.505 6.193c.054 0 .097-.043.097-.097s-.043-.097-.097-.097c-.054 0-.097.043-.097.097s.043.097.097.097z"/>
      <path fill="#263238" style="fill:var(--color2, #263238)" d="M36.973 4.927H19.288v2.731h17.685V4.927z"/>
      <path fill="#fff" style="fill:var(--color1, #fff)" opacity=".2" d="M36.717 5.133h-17.18a.098.098 0 0 0-.098.097v.442c0 .054.044.097.098.097h17.18a.098.098 0 0 0 .098-.097V5.23a.097.097 0 0 0-.098-.097z"/>
      <path fill="#fff" style="fill:var(--color1, #fff)" d="M35.39 8.207H20.874a7.556 7.556 0 0 1-.637-2.954H36.03c0 1.368-.64 2.954-.64 2.954z"/>
      <path style="fill:var(--color5, #000)" opacity=".2" d="M35.538 7.799c-.086.254-.148.408-.148.408H20.874s-.071-.148-.168-.408h14.832zM35.84 6.73c-.049.212-.103.419-.156.601H20.548a8.698 8.698 0 0 1-.153-.601H35.84z"/>
      <path fill="#757575" style="fill:var(--color8, #757575)" d="M19.285 4.787h-.433V7.8h.433V4.787z"/>
      <path style="fill:var(--color5, #000)" opacity=".2" d="M19.276 6.906h-.421V7.8h.421v-.894z"/>
      <path fill="#757575" style="fill:var(--color8, #757575)" d="M37.408 4.787h-.433V7.8h.433V4.787z"/>
      <path style="fill:var(--color5, #000)" opacity=".2" d="M37.409 6.906h-.436V7.8h.436v-.894z"/>
      <path fill="#999" style="fill:var(--color7, #999)" d="M36.979 4.661v2.198H19.281V4.661h-.17v2.345h18.038V4.661h-.17z"/>
      <path fill="#fff" style="fill:var(--color1, #fff)" d="M38.025 8.363v4.928a.314.314 0 0 1-.314.314H18.548a.314.314 0 0 1-.314-.314V8.363a.314.314 0 0 1 .314-.314h8.83v.313s-1.508 1.304-4.107 1.785c.372 1.681 2.407 2.965 4.863 2.965s4.491-1.285 4.864-2.965c-2.603-.481-4.11-1.785-4.11-1.785v-.316h8.826a.31.31 0 0 1 .222.094.309.309 0 0 1 .091.222z"/>
      <path fill="#fff" style="fill:var(--color1, #fff)" d="M38.025 8.363v4.928a.31.31 0 0 1-.092.222.32.32 0 0 1-.222.092H18.549a.31.31 0 0 1-.222-.092.32.32 0 0 1-.092-.222V8.363a.316.316 0 0 1 .316-.314h8.83v.314s-1.508 1.303-4.107 1.785c.372 1.681 2.407 2.965 4.864 2.965s4.49-1.285 4.863-2.965c-2.603-.481-4.11-1.785-4.11-1.785v-.316h8.826a.314.314 0 0 1 .313.317z"/>
      <path fill="#fff" style="fill:var(--color1, #fff)" opacity=".2" d="M37.6 8.438v4.55c0 .03-.006.06-.018.088s-.029.053-.05.075a.224.224 0 0 1-.164.067H18.735c-.03 0-.06-.006-.088-.017s-.053-.028-.075-.05a.222.222 0 0 1-.067-.163v-4.55c0-.03.006-.06.017-.088s.028-.053.05-.075a.24.24 0 0 1 .163-.068h8.639v.155s-1.508 1.303-4.107 1.785c.372 1.681 2.407 2.965 4.864 2.965s4.49-1.286 4.863-2.965c-2.603-.481-4.11-1.785-4.11-1.785v-.155h8.486a.23.23 0 0 1 .229.23z"/>
      <path style="fill:var(--color5, #000)" opacity=".14" d="m31.695 15.065.941 2.617s.407-2.88.65-2.88.766 1.575.766 1.575.323-.822.629-.851c.306-.03.583 2.018.583 2.018l.047 4.544-.386 6.872s-2.462-2.704-3.18-3.401-1.404-2.23-1.602-2.541-.249-1.941-.249-1.941c.251-.32.382-.718.371-1.124 0 0 .578-.964.542-1.676s-.125-3.477.887-3.211z"/>
      <path fill="#fff" style="fill:var(--color1, #fff)" d="m39.102 27.742-3.727 1.955c0-.02-.49-.811-1.082-1.706a44.53 44.53 0 0 0-.831-1.216c-.449-.63-1.02-1.175-1.069-1.293-.142-.353-1.233-1.675-1.478-2.189s-.3-2.113-.408-2.489c-.108-.376.201-.736.449-.911s.508-.635.508-.635-.274-1.065-.277-1.606c-.003-.541-.188-2.431.033-2.608s.419-.102.474.019c.181.4.344 1.407.484 1.871s.402 1.809.53 1.906.358-.266.358-.266.022-1.129.071-1.597l-.071-1.483s-.133-.891.175-.976c.425-.117.58.15.628.262s.246.759.246.759l.011.044V15.604l.011.04.027.105c.094.368.276 1.104.268 1.286-.011.245-.096 1.602.025 1.883l.188-1.874s-.304-1.444-.215-1.653.506.022.555.104c.05.082.455.577.527.767l.071.189s.1-.448.334-.331.264.685.28.934.186 1.847.212 1.85c.026.003.297.833.26 1.382-.077 1.174.127 2.047.134 2.498s-.334 1.494-.334 1.494c.012.02.234.397.295.729.045.243.838 1.12 1.487 1.819.451.481.829.875.849.918z"/>
      <path fill="#fff" style="fill:var(--color1, #fff)" opacity=".4" d="M34.294 27.992a44.53 44.53 0 0 0-.831-1.216c-.449-.63-1.02-1.175-1.069-1.293-.142-.353-1.233-1.674-1.478-2.188s-.3-2.113-.408-2.489.201-.736.449-.911c.248-.175.508-.635.508-.635s-.274-1.065-.277-1.606c-.003-.541-.188-2.431.033-2.608s.419-.102.474.019c.181.4.344 1.407.484 1.871s.401 1.809.53 1.906c.129.097.358-.266.358-.266s.022-1.129.071-1.598l-.071-1.482s-.133-.891.175-.976c.425-.117.58.15.628.262s.246.759.246.759l.011.044V15.606c.003.012.006.026.011.04l.027.105c-.11-.173-.261-.321-.462-.359-.566-.11-.444.518-.39.895.031.25.025.503-.018.752l.142-.081c-.102.181-.248 1.689-.248 2.025s-.266.447-.505.349c-.239-.098-.324-1.637-.505-1.913s-.685.251-.708.734c-.023.482.428 1.92.321 2.259s-.105 1.624-.105 1.624l-.13-.331c.009.045 0 .197-.273.644a1.33 1.33 0 0 0-.148 1.098c.166.366 1.01 1.332 1.152 1.432 0 0 .103-.419.425-.308-.11.174-.19.365-.236.565-.067.308.605.505.816.798.129.179.215.723 1 2.061zM38.258 26.825c-.663-.666-1.829-1.3-1.758-1.466.095-.223-.025-.698-.229-1.084s.071-1.011.071-1.011l.126.364a3.08 3.08 0 0 0 .035-1.279c-.129-.721-.229-.467-.229-.467s.026-.649.142-1.004c.115-.354.212-1.215.053-1.724s-.496-.413-.586-.238c-.09.175.006.858.081 1.082s-.242.6-.248.32c-.006-.28-.126-1.059-.126-1.059l.24-1.565-.24-1.243s.1-.448.334-.331.263.685.28.934.186 1.847.212 1.85c.026.003.297.833.26 1.382-.077 1.174.127 2.047.134 2.498s-.334 1.494-.334 1.494c.012.02.234.397.295.729.045.243.838 1.12 1.487 1.818l.001.001zM35.514 16.262l.033.087c-.225-.522-.609-.36-.677-.212s.161 1.068.212 1.211c.052.143-.205 1.281-.243 1.658s-.137.454-.137.454c-.254.019-.283-.68-.283-.776.005.08.021.16.047.236l.188-1.874s-.311-1.446-.222-1.654.506.022.555.104c.05.082.455.577.527.767z"/>
      <path fill="#fff" style="fill:var(--color1, #fff)" d="M32.303 17.421s-.115-.169-.417-.113-.437.482-.437.482z"/>
      <path style="fill:var(--color5, #000)" opacity=".14" d="M25.673 16.235c.425.328.067 2.343.067 2.343l.038.656.729-.316.332 1.401s-.009.513.261.706c0 0 .067 1.151 0 1.993s-1.416 1.83-1.881 2.714-3.499 3.479-3.499 3.479l-2.569-1.218 1.857-7.479 1.664-2.133.986-2.453s.169 1.602.071 2.683l1.945-2.375z"/>
      <path fill="#fff" style="fill:var(--color1, #fff)" d="M26.388 20.711c-.064.309.091 2.004.064 2.233s-1.379 1.765-1.447 1.881c-.068.116-.972.635-1.183.883-.983 1.143-1.52 2.195-1.951 3.251a26.75 26.75 0 0 0-.24.612l-3.9-2.259c.328-.405.637-.765.921-1.093.567-.664 1.018-1.196 1.238-1.698a2.8 2.8 0 0 1 .232-.367c.088-.124.166-.227.166-.227s-.283-.796-.217-1.045c.066-.25-.081-2.304-.081-2.304s-.192-1.399-.381-1.752a.59.59 0 0 1-.061-.298c.009-.323.197-.729.289-1.2.123-.635.064-.95.45-.73s.206 1.553.206 1.553l.584 1.29c.154-.312 0-1.223-.008-1.438 0-.035 0-.094-.006-.17-.012-.371-.037-1.144-.005-1.449 0-.017 0-.032.006-.047.047-.315.217-1.317.324-1.428.16-.165.414-.304.654.071.134.212.076 1.891.076 1.891s.555-.668.724-.831c.169-.163.68-.461.816-.116s-.367 1.412-.367 1.412c.106.247.118.931.118.931s.239.855.385.847h.006c.043-.009.089-.165.138-.383.12-.534.251-1.449.354-1.528l.071-.056a.057.057 0 0 1 .011-.011l.026-.023c.251-.222.779-.716.779-.716s.038-.236.5-.164c.462.073-.205 1.433-.205 1.433-.093.433-.235 1.546-.235 1.546-.043.463-.018 1.708-.018 1.708s.219-.724.205-.988c-.014-.264.435-.911.566-1.077s.72-.108.556.212c-.163.32-.097 1.333-.161 1.644z"/>
      <path fill="#fff" style="fill:var(--color1, #fff)" opacity=".4" d="M19.887 24.524a2.8 2.8 0 0 1 .232-.367s-.23.635-.253.973c-.015.223-.604.609-1.218 1.091.57-.664 1.018-1.196 1.239-1.698zM20.12 24.157c.088-.124.166-.227.166-.227s-.283-.796-.217-1.045c.066-.25-.081-2.304-.081-2.304s-.192-1.398-.381-1.751l.441.767s-.043.606.082.939.283 1.347.283 1.347-.185.853-.122 1.16.347.195.347.195.14.562-.517.919zM21.147 18.381c.304 1.773-.22 1.283-.409.9s-.633-1.107-.967-.952a.528.528 0 0 0-.226.203c.009-.323.197-.729.289-1.2.123-.635.064-.949.45-.73s.206 1.553.206 1.553l.584 1.29c.154-.312 0-1.223-.008-1.438 0-.035 0-.094-.006-.17.023.163.052.345.086.544zM21.891 16.628s-.328-.428-.613-.406a.252.252 0 0 0-.221.164c0-.017 0-.032.006-.047.047-.315.217-1.317.324-1.428.16-.165.414-.304.654.071.134.212.076 1.891.076 1.891s.555-.668.724-.831c.169-.163.68-.461.816-.116s-.367 1.412-.367 1.412c.106.247.118.931.118.931s.239.855.385.847c-.323.606-.538-.733-.538-.733.048-.277-.123-.877-.106-1.035s-.297-.717-.827-.565c-.53.152-.147 2.239-.147 2.239a1.154 1.154 0 0 0-.177.552c-.163-.201 0-.777 0-.777-.145-.551-.106-2.169-.106-2.169zM24.359 17.146c-.226.236-.195.834-.425 1.585.12-.534.251-1.449.354-1.528l.071-.056zM26.388 20.711c-.064.309.091 2.004.064 2.233s-1.379 1.765-1.447 1.881c-.068.116-.972.635-1.182.883-.983 1.143-1.52 2.195-1.951 3.251.162-.547.358-1.084.587-1.607.465-1.043.655-1.228.934-1.526s.248-.931.248-.931c.206-.049.417-.074.629-.074.354 0 1.402-1.49 1.762-1.751s.425-.261 0-.837-.305.093-.432.071-.197.256-.197.256c-.045-.587-.425-1.271-.505-1.442s.194-1.173.137-1.451c-.057-.279.244-1.977.244-1.977s-.038-.651-.629-.654a.391.391 0 0 0-.254.076c.251-.222.779-.716.779-.716s.038-.236.5-.164c.462.073-.205 1.433-.205 1.433-.093.433-.235 1.546-.235 1.546-.043.463-.018 1.708-.018 1.708s.219-.724.205-.988c-.014-.264.435-.911.567-1.077s.719-.108.556.212c-.163.32-.091 1.335-.156 1.646z"/>
    </symbol>
  </defs>
</svg>
